<?xml version="1.0" encoding="UTF-8" standalone="no"?>
<!DOCTYPE svg PUBLIC "-//W3C//DTD SVG 1.1//EN" "http://www.w3.org/Graphics/SVG/1.1/DTD/svg11.dtd">
<svg width="100%" height="100%" viewBox="0 0 3225 3225" version="1.1" xmlns="http://www.w3.org/2000/svg" xmlns:xlink="http://www.w3.org/1999/xlink" xml:space="preserve" xmlns:serif="http://www.serif.com/" style="fill-rule:evenodd;clip-rule:evenodd;stroke-linejoin:round;stroke-miterlimit:2;">
    <g id="Salamandra">
        <path d="M1400.84,873.074C1398.83,877.856 1397.77,879.692 1398.03,879.762C1655.72,949.821 1565.36,1186.06 1431.75,1219.63C1397.12,1228.34 1202.18,1260.84 982.983,1221.91C809.55,1191.11 769.35,1213.02 797.975,1230.16C1189.56,1464.62 1962.54,1249.58 2411.46,1281.68C3272.15,1343.22 3145.42,2075.82 3144.35,2122.18C3144.35,2122.56 3144.73,2122.18 3144.73,2122.18C3140.12,2262.59 3085.75,2340.3 3026.68,2406.33C2816.95,2640.78 2401.89,2561.12 1910.05,2537.92C1061.69,2497.92 636.24,2511.34 377.078,2525.2C205.142,2534.4 64.271,2543.82 73.984,2537.92C233.729,2440.9 387.323,2381.6 566.953,2356.85C661.332,2343.84 762.9,2340.37 876.323,2345.98C2607.97,2431.54 2828.08,2443.4 2761.38,2122.18L2762.2,2122.18C2725.11,1945.88 2557.76,1933.6 2530.68,1973.66C2416.78,2142.16 2647.07,2261.77 2566.91,2299.42C2504.35,2328.79 2475.23,2232.58 2423.96,2250.53C2394.8,2260.73 2456.09,2343.29 2397.69,2353.72C2331.4,2365.56 2350.01,2275.05 2279.86,2272.4C2202.66,2269.49 2231.48,2364.44 2165.48,2353.72C2103.75,2343.7 2159.31,2281.5 2115.48,2253.65C2065.6,2221.96 2029.06,2317.01 1986.39,2303.54C1938.07,2288.29 1985.91,2196.44 2037.46,2150.05C2114.88,2080.38 2087.4,1962.52 2069.4,1974.19C1986.05,2028.17 2049.38,2130.53 2031.37,2150.05C1974.2,2212.04 1969.56,2250.86 1969.05,2247.4C1892.07,2224.57 1989,2322.67 1925.67,2348.85C1864.4,2374.18 1848.91,2282.17 1806.06,2278.65C1765.48,2275.32 1763.02,2351.28 1691.57,2348.85C1607.75,2346 1714.13,2260.48 1644.69,2247.4C1614.19,2241.66 1576.23,2313.7 1523.99,2280.67C1490.8,2259.68 1517.7,2227.05 1601.11,2150.05C1657.1,2098.36 1709.71,1932.86 1462.15,1939.32C1283.38,1943.98 1331.22,2100.34 1365.65,2150.09C1397.21,2195.7 1460.49,2282.67 1419.65,2299.42C1338.52,2332.68 1337.03,2219.74 1283.49,2221.42C1206.23,2223.86 1280.57,2338.35 1209.04,2345.98C1128.89,2354.52 1140.16,2222.34 1100.38,2221.42C1044.13,2220.13 1009.49,2329.16 942.36,2328.54C836.363,2327.55 968.331,2220.21 909.233,2213.69C875.433,2209.96 797.254,2309.83 751.76,2278.65C714.132,2252.86 729.68,2234.22 795.777,2150.09C798.195,2147.33 698.364,2040.54 797.478,1973.66C853.908,1935.58 832.565,2103.26 795.777,2150.09C766.754,2183.13 756.852,2202.24 745.497,2213.69C742.078,2217.14 713.226,2203.53 686.163,2213.69C636.219,2232.43 717.451,2310.64 664.289,2328.54C568.187,2360.89 585.529,2257.56 523.207,2247.4C448.059,2235.15 452.317,2357.89 364.581,2345.98C286.946,2335.43 367.692,2264.37 339.582,2247.4C298.638,2222.68 237.569,2320.18 171.957,2278.65C121.503,2246.71 247.791,2177.18 284.002,2122.18L284.001,2122.18C529.878,1748.72 105.484,1284.12 212.647,875.814C315.152,485.254 810.883,269.911 1283.3,559.803C1321.17,583.043 1361.34,529.059 1398.03,559.803C1410.54,570.283 1419.1,589.937 1424.73,612.847C1465.32,639.119 1492.2,684.796 1492.2,736.702C1492.2,798.222 1454.43,850.992 1400.84,873.074Z" style="stroke:black;stroke-width:65.71px;"/>
        <path d="M1400.84,873.074C1398.83,877.856 1397.77,879.692 1398.03,879.762C1437.05,890.369 1468.08,904.786 1492.2,921.732C1528.23,947.046 1548.81,978.005 1557.47,1010.34C1581.32,1099.33 1514.91,1198.74 1431.75,1219.63C1417.04,1223.33 1373.41,1231.32 1311.27,1236.31C1264.62,1240.05 1207.53,1242.1 1144.43,1239.37C1093.74,1237.17 1039.15,1231.88 982.983,1221.91C939.332,1214.16 904.121,1209.74 876.323,1207.75C793.674,1201.83 776.554,1217.33 797.975,1230.16C841.679,1256.33 890.135,1276.89 942.36,1292.83C1044.11,1323.88 1160.18,1337.36 1283.3,1340.42C1385.74,1342.96 1493.07,1338.3 1601.11,1330.55C1677.64,1325.06 1754.52,1318.02 1830.27,1310.91C1898.59,1304.49 1965.99,1298 2031.37,1292.53C2085.03,1288.03 2137.34,1284.22 2187.69,1281.68C2268.08,1277.63 2343.48,1276.82 2411.46,1281.68C2467.33,1285.68 2519.05,1292.5 2566.91,1301.78C2661.99,1320.22 2741.85,1348.35 2808.87,1383.27C2906.02,1433.9 2976.2,1498.78 3026.68,1569.05C3084.81,1649.95 3116.82,1738 3133.82,1819.65C3150.76,1901 3152.8,1975.99 3150.92,2031.24C3149.26,2080.01 3144.56,2113.4 3144.35,2122.18C3144.35,2122.56 3144.73,2122.18 3144.73,2122.18C3142.23,2198.38 3125.07,2256.12 3100.46,2303.54C3079.72,2343.5 3053.69,2376.13 3026.68,2406.33C2941.71,2501.32 2823.03,2544.74 2679.19,2561.26C2561.63,2574.75 2427.27,2570.26 2280.77,2561.26C2164.11,2554.08 2039.75,2544.04 1910.05,2537.92C1800.16,2532.74 1697.36,2528.45 1601.11,2524.95C1517.85,2521.92 1439.48,2519.47 1365.65,2517.54C1269.86,2515.02 1181.7,2513.37 1100.38,2512.41C999.629,2511.22 909.37,2511.1 828.106,2511.74C632.695,2513.28 489.297,2519.2 377.078,2525.2C205.142,2534.4 64.271,2543.82 73.984,2537.92C166.858,2481.51 257.653,2437.86 352.694,2406.33C421.125,2383.62 491.758,2367.21 566.953,2356.85C623.547,2349.05 682.726,2344.68 745.497,2343.64C787.405,2342.94 830.914,2343.73 876.323,2345.98C940.721,2349.16 1003.03,2352.24 1063.31,2355.2C1150.11,2359.47 1232.7,2363.5 1311.27,2367.25C1385.73,2370.81 1456.59,2374.11 1523.99,2377.13C1625.67,2381.69 1719.51,2385.6 1806.06,2388.74C1902.67,2392.25 1990.19,2394.81 2069.4,2396.26C2135.63,2397.47 2196.04,2397.91 2251.08,2397.47C2366.54,2396.55 2458.37,2391.78 2530.68,2382.31C2615.03,2371.26 2672.83,2353.8 2710.62,2328.54C2775.57,2285.13 2781.42,2218.68 2761.38,2122.18L2762.2,2122.18C2748.21,2055.7 2715.71,2012.55 2679.19,1986.72C2618.86,1944.06 2547.55,1948.7 2530.68,1973.66C2493.42,2028.78 2492.99,2078.68 2506.48,2122.18C2534.23,2211.65 2620.84,2274.09 2566.91,2299.42C2504.35,2328.79 2475.23,2232.58 2423.96,2250.53C2394.8,2260.73 2456.09,2343.29 2397.69,2353.72C2331.4,2365.56 2350.01,2275.05 2279.86,2272.4C2202.66,2269.49 2231.48,2364.44 2165.48,2353.72C2103.75,2343.7 2159.31,2281.5 2115.48,2253.65C2065.6,2221.96 2029.06,2317.01 1986.39,2303.54C1938.07,2288.29 1985.91,2196.44 2037.46,2150.05C2114.88,2080.38 2087.4,1962.52 2069.4,1974.19C1986.05,2028.17 2049.38,2130.53 2031.37,2150.05C1974.2,2212.04 1969.56,2250.86 1969.05,2247.4C1892.07,2224.57 1989,2322.67 1925.67,2348.85C1864.4,2374.18 1848.91,2282.17 1806.06,2278.65C1765.48,2275.32 1763.02,2351.28 1691.57,2348.85C1607.75,2346 1714.13,2260.48 1644.69,2247.4C1614.19,2241.66 1576.23,2313.7 1523.99,2280.67C1490.8,2259.68 1517.7,2227.05 1601.11,2150.05C1639.79,2114.34 1676.86,2024.31 1614.45,1974.19C1586.52,1951.76 1538.68,1937.32 1462.15,1939.32C1401.22,1940.91 1366.61,1960.12 1348.83,1986.72C1314.43,2038.18 1342.95,2117.29 1365.65,2150.09C1397.21,2195.7 1460.49,2282.67 1419.65,2299.42C1338.52,2332.68 1337.03,2219.74 1283.49,2221.42C1206.23,2223.86 1280.57,2338.35 1209.04,2345.98C1128.89,2354.52 1140.16,2222.34 1100.38,2221.42C1044.13,2220.13 1009.49,2329.16 942.36,2328.54C836.363,2327.55 968.331,2220.21 909.233,2213.69C875.433,2209.96 797.254,2309.83 751.76,2278.65C714.132,2252.86 729.68,2234.22 795.777,2150.09C798.195,2147.33 698.364,2040.54 797.478,1973.66C853.908,1935.58 832.565,2103.26 795.777,2150.09C766.754,2183.13 756.852,2202.24 745.497,2213.69C742.078,2217.14 713.226,2203.53 686.163,2213.69C636.219,2232.43 717.451,2310.64 664.289,2328.54C568.187,2360.89 585.529,2257.56 523.207,2247.4C448.059,2235.15 452.317,2357.89 364.581,2345.98C286.946,2335.43 367.692,2264.37 339.582,2247.4C298.638,2222.68 237.569,2320.18 171.957,2278.65C121.503,2246.71 247.791,2177.18 284.002,2122.18L284.001,2122.18C322.767,2063.3 344.872,2002.15 355.025,1939.32C365.955,1871.67 363.034,1802.08 352.139,1731.24C343.916,1677.78 331.15,1623.61 316.368,1569.05C302.647,1518.4 287.189,1467.42 272.015,1416.34C254.488,1357.34 237.34,1298.23 223.685,1239.37C212.786,1192.39 204.112,1145.57 199.248,1099.12C191.324,1023.45 193.509,948.734 212.647,875.814C234.028,794.349 272.518,720.506 324.336,657.283C363.587,609.393 410.484,567.596 463.386,533.193C510.067,502.834 561.424,478.233 616.328,460.284C710.667,429.443 815.478,418.24 925.033,431.214C982.454,438.013 1041.18,451.455 1100.38,472.191C1161.15,493.475 1222.42,522.443 1283.3,559.803C1321.17,583.043 1361.34,529.059 1398.03,559.803C1410.54,570.283 1419.1,589.937 1424.73,612.847C1465.32,639.119 1492.2,684.796 1492.2,736.702C1492.2,798.222 1454.43,850.992 1400.84,873.074Z" style="stroke:white;stroke-width:9.38px;"/>
        <path d="M1549.02,1108.7C1535.3,1139.28 1527.81,1152.13 1503.68,1175.53C1469.17,1184.92 1361.89,1201.23 1314.86,1201.23C1278.28,1201.23 1068.24,1190.56 987.703,1129.2C962.804,1110.23 1225.64,1138.13 1308.93,1139.28C1339.88,1139.71 1447.81,1141.46 1553.45,1095.73C1554.64,1095.22 1552.66,1100.59 1549.02,1108.7Z" style="fill:rgb(220,4,8);stroke:rgb(62,0,0);stroke-width:8.59px;"/>
        <g id="stains">
            <path d="M879.427,1271.63C1004.88,1325.41 1144.82,1342.04 1298.11,1341.02C1267.51,1410.55 1157.4,1485.17 1023.41,1450.5C867.26,1410.11 865.798,1321.68 879.427,1271.63Z" style="fill:rgb(255,206,0);stroke:white;stroke-width:0.75px;"/>
            <path d="M243.194,780.765C297.409,811.877 332.293,886.289 326.199,969.96C319.642,1059.98 267.732,1132.21 203.29,1148.94C189.843,1070.22 189.969,979.289 213.601,873.99C220.833,841.763 230.753,810.625 243.194,780.765Z" style="fill:rgb(255,206,0);stroke:white;stroke-width:0.75px;"/>
            <path d="M787.29,427.426C806.836,426.144 826.634,425.64 846.655,425.925C854.433,497.889 795.726,574.161 705.243,603.964C606.498,636.489 506.438,601.64 479.571,526.077C567.912,470.87 673.202,436.076 787.29,427.426Z" style="fill:rgb(255,206,0);stroke:white;stroke-width:0.75px;"/>
            <path d="M3082.88,1668.22C3165.14,1854.22 3150.14,2049.3 3145.43,2107.22C3137.44,2110.46 3129.07,2112.62 3120.39,2113.69C3038.58,2123.74 2960.3,2032.22 2945.69,1909.44C2931.08,1786.67 2985.64,1678.83 3067.45,1668.79C3072.62,1668.15 3077.76,1667.92 3082.88,1668.22Z" style="fill:rgb(255,206,0);stroke:white;stroke-width:0.75px;"/>
            <path d="M1840.98,1306.85C1841.43,1315.84 1840.87,1324.91 1839.35,1334C1823.77,1427.42 1713.69,1486.5 1593.67,1465.84C1506.71,1450.87 1438.25,1398.13 1413.36,1334.59C1547.9,1332.01 1693.13,1319.32 1840.98,1306.85Z" style="fill:rgb(255,206,0);stroke:white;stroke-width:0.75px;"/>
            <path d="M1985.36,1295.12C2129.75,1284.14 2274.23,1276.53 2411.45,1281.69L2423.36,1282.3C2413.36,1363.35 2331.17,1433.48 2224.41,1446.13C2103.5,1460.46 1996.57,1395.68 1985.76,1301.56L1985.36,1295.12Z" style="fill:rgb(255,206,0);stroke:white;stroke-width:0.75px;"/>
            <path d="M2551.73,1294.82C2717.87,1320.42 2838.43,1379.01 2925.69,1453.89C2871.41,1498 2782.18,1506.86 2697.81,1470.4C2614.5,1434.39 2559.25,1364.27 2551.73,1294.82Z" style="fill:rgb(255,206,0);stroke:white;stroke-width:0.75px;"/>
            <path d="M1990.89,2539.67C2030.16,2491.08 2099.96,2459.05 2179.2,2459.69C2269.35,2460.43 2346.6,2503.25 2380.32,2563.92C2258.98,2558.67 2128.09,2547.76 1990.89,2539.67ZM2654.44,2561.03C2664.6,2493.16 2719.71,2425.7 2801.43,2391.07C2884.55,2355.85 2972.05,2364.4 3026.49,2406.63C2936.81,2504.83 2809.19,2546.89 2654.44,2561.03ZM1363.79,2515.64C1402.83,2466.16 1473.27,2433.43 1553.36,2434.08C1638.42,2434.78 1712,2472.94 1748.36,2528.21C1614.72,2522.77 1486.38,2518.66 1363.79,2515.64ZM668.792,2508.94C702.265,2446.7 781.617,2403.29 873.737,2404.04C964.896,2404.78 1042.87,2448.56 1075.97,2510.31C930.353,2508.51 794.427,2508.22 668.792,2508.94Z" style="fill:rgb(255,206,0);"/>
        </g>
        <path d="M1400.84,873.074C1398.83,877.856 1397.77,879.692 1398.03,879.762C1655.72,949.821 1565.36,1186.06 1431.75,1219.63C1397.12,1228.34 1202.18,1260.84 982.983,1221.91C809.55,1191.11 769.35,1213.02 797.975,1230.16C1189.56,1464.62 1962.54,1249.58 2411.46,1281.68C3272.15,1343.22 3145.42,2075.82 3144.35,2122.18C3144.35,2122.56 3144.73,2122.18 3144.73,2122.18C3140.12,2262.59 3085.75,2340.3 3026.68,2406.33C2816.95,2640.78 2401.89,2561.12 1910.05,2537.92C1061.69,2497.92 636.24,2511.34 377.078,2525.2C205.142,2534.4 64.271,2543.82 73.984,2537.92C233.729,2440.9 387.323,2381.6 566.953,2356.85C661.332,2343.84 762.9,2340.37 876.323,2345.98C2607.97,2431.54 2828.08,2443.4 2761.38,2122.18L2762.2,2122.18C2725.11,1945.88 2557.76,1933.6 2530.68,1973.66C2416.78,2142.16 2647.07,2261.77 2566.91,2299.42C2504.35,2328.79 2475.23,2232.58 2423.96,2250.53C2394.8,2260.73 2456.09,2343.29 2397.69,2353.72C2331.4,2365.56 2350.01,2275.05 2279.86,2272.4C2202.66,2269.49 2231.48,2364.44 2165.48,2353.72C2103.75,2343.7 2159.31,2281.5 2115.48,2253.65C2065.6,2221.96 2029.06,2317.01 1986.39,2303.54C1938.07,2288.29 1985.91,2196.44 2037.46,2150.05C2114.88,2080.38 2087.4,1962.52 2069.4,1974.19C1986.05,2028.17 2049.38,2130.53 2031.37,2150.05C1974.2,2212.04 1969.56,2250.86 1969.05,2247.4C1892.07,2224.57 1989,2322.67 1925.67,2348.85C1864.4,2374.18 1848.91,2282.17 1806.06,2278.65C1765.48,2275.32 1763.02,2351.28 1691.57,2348.85C1607.75,2346 1714.13,2260.48 1644.69,2247.4C1614.19,2241.66 1576.23,2313.7 1523.99,2280.67C1490.8,2259.68 1517.7,2227.05 1601.11,2150.05C1657.1,2098.36 1709.71,1932.86 1462.15,1939.32C1283.38,1943.98 1331.22,2100.34 1365.65,2150.09C1397.21,2195.7 1460.49,2282.67 1419.65,2299.42C1338.52,2332.68 1337.03,2219.74 1283.49,2221.42C1206.23,2223.86 1280.57,2338.35 1209.04,2345.98C1128.89,2354.52 1140.16,2222.34 1100.38,2221.42C1044.13,2220.13 1009.49,2329.16 942.36,2328.54C836.363,2327.55 968.331,2220.21 909.233,2213.69C875.433,2209.96 797.254,2309.83 751.76,2278.65C714.132,2252.86 729.68,2234.22 795.777,2150.09C798.195,2147.33 698.364,2040.54 797.478,1973.66C853.908,1935.58 832.565,2103.26 795.777,2150.09C766.754,2183.13 756.852,2202.24 745.497,2213.69C742.078,2217.14 713.226,2203.53 686.163,2213.69C636.219,2232.43 717.451,2310.64 664.289,2328.54C568.187,2360.89 585.529,2257.56 523.207,2247.4C448.059,2235.15 452.317,2357.89 364.581,2345.98C286.946,2335.43 367.692,2264.37 339.582,2247.4C298.638,2222.68 237.569,2320.18 171.957,2278.65C121.503,2246.71 247.791,2177.18 284.002,2122.18L284.001,2122.18C529.878,1748.72 105.484,1284.12 212.647,875.814C315.152,485.254 810.883,269.911 1283.3,559.803C1321.17,583.043 1361.34,529.059 1398.03,559.803C1410.54,570.283 1419.1,589.937 1424.73,612.847C1465.32,639.119 1492.2,684.796 1492.2,736.702C1492.2,798.222 1454.43,850.992 1400.84,873.074Z" style="fill:none;stroke:white;stroke-width:9.38px;"/>
        <g id="eyes">
            <circle cx="985.703" cy="736.702" r="147.426" style="fill:white;"/>
            <path d="M985.703,589.276C1067.07,589.276 1133.13,655.335 1133.13,736.702C1133.13,818.068 1067.07,884.128 985.703,884.128C904.337,884.128 838.277,818.068 838.277,736.702C838.277,655.335 904.337,589.276 985.703,589.276ZM985.703,593.419C906.623,593.419 842.42,657.622 842.42,736.702C842.42,815.782 906.623,879.985 985.703,879.985C1064.78,879.985 1128.99,815.782 1128.99,736.702C1128.99,657.622 1064.78,593.419 985.703,593.419Z"/>
            <circle cx="1010.58" cy="770.147" r="54.286"/>
            <path d="M1010.58,715.861C1040.54,715.861 1064.86,740.186 1064.86,770.147C1064.86,800.108 1040.54,824.432 1010.58,824.432C980.617,824.432 956.292,800.108 956.292,770.147C956.292,740.186 980.617,715.861 1010.58,715.861ZM1010.58,720.004C982.903,720.004 960.435,742.472 960.435,770.147C960.435,797.821 982.903,820.289 1010.58,820.289C1038.25,820.289 1060.72,797.821 1060.72,770.147C1060.72,742.472 1038.25,720.004 1010.58,720.004Z"/>
            <circle cx="1344.77" cy="736.702" r="147.426" style="fill:white;"/>
            <path d="M1344.77,589.276C1426.14,589.276 1492.2,655.335 1492.2,736.702C1492.2,818.068 1426.14,884.128 1344.77,884.128C1263.41,884.128 1197.35,818.068 1197.35,736.702C1197.35,655.335 1263.41,589.276 1344.77,589.276ZM1344.77,593.419C1265.69,593.419 1201.49,657.622 1201.49,736.702C1201.49,815.782 1265.69,879.985 1344.77,879.985C1423.85,879.985 1488.06,815.782 1488.06,736.702C1488.06,657.622 1423.85,593.419 1344.77,593.419Z"/>
            <circle cx="1369.65" cy="770.147" r="54.286"/>
            <path d="M1369.65,715.861C1399.61,715.861 1423.93,740.186 1423.93,770.147C1423.93,800.108 1399.61,824.432 1369.65,824.432C1339.69,824.432 1315.36,800.108 1315.36,770.147C1315.36,740.186 1339.69,715.861 1369.65,715.861ZM1369.65,720.004C1341.97,720.004 1319.51,742.472 1319.51,770.147C1319.51,797.821 1341.97,820.289 1369.65,820.289C1397.32,820.289 1419.79,797.821 1419.79,770.147C1419.79,742.472 1397.32,720.004 1369.65,720.004Z"/>
        </g>
        <path d="M1549.02,1108.7C1601.93,1103.35 1660.31,1104.5 1721.2,1107.92C2099.58,1129.2 2282.79,1107.77 2378.56,1107.92C2879.07,1108.7 2961.1,834.556 2929.3,628.622C2914.54,533.042 2800.93,476.47 2657.8,476.47C2549.87,476.47 2378.56,570.511 2378.56,664.371C2378.56,779.423 2619.69,837.215 2658.71,839.021C2712.36,841.504 2751.98,763.826 2731.11,722.19C2658.16,576.665 2545.06,707.957 2522.29,698.751C2479.97,681.643 2515.93,640.173 2536.76,624.091C2571.13,597.565 2612.06,591.025 2640.76,592.488C2744.84,597.795 2838.05,693.715 2794.55,805.477C2710.23,1022.16 2303.01,816.383 2303.01,664.371C2303.01,452.016 2603.75,398.73 2674.82,398.73C2774.8,398.73 2906.34,443.434 2952.76,495.779C3001.04,550.216 3031.72,641.732 3017.34,762.852C2993.58,962.855 2837.04,1178.96 2350.21,1178.96C2295.74,1178.96 1835.97,1191.11 1595.15,1178.96C1562.74,1177.32 1536.03,1177.47 1504.43,1175.53C1469.92,1184.92 1361.89,1201.23 1314.86,1201.23C1278.28,1201.23 1068.24,1190.56 987.703,1129.2C962.804,1110.23 1225.64,1138.13 1308.93,1139.28C1339.88,1139.71 1447.81,1141.46 1553.45,1095.73C1554.64,1095.22 1552.66,1100.59 1549.02,1108.7Z" style="fill:rgb(220,4,8);stroke:rgb(125,0,0);stroke-width:8.59px;"/>
    </g>
</svg>
