<?xml version="1.0" encoding="UTF-8" standalone="no"?>
<!DOCTYPE svg PUBLIC "-//W3C//DTD SVG 1.1//EN" "http://www.w3.org/Graphics/SVG/1.1/DTD/svg11.dtd">
<svg width="100%" height="100%" viewBox="0 0 3225 3225" version="1.1" xmlns="http://www.w3.org/2000/svg" xmlns:xlink="http://www.w3.org/1999/xlink" xml:space="preserve" xmlns:serif="http://www.serif.com/" style="fill-rule:evenodd;clip-rule:evenodd;stroke-linejoin:round;stroke-miterlimit:2;">
    <g id="Salamandra">
        <path id="Background" d="M1398.83,872.199c-2.01,4.782 -3.07,6.618 -2.81,6.688c257.69,70.059 167.33,306.298 33.72,339.868c-34.63,8.71 -229.57,41.21 -448.767,2.28c-173.433,-30.8 -213.633,-8.89 -185.008,8.25c391.585,234.46 1164.57,19.42 1613.49,51.52c860.69,61.54 733.96,794.14 732.89,840.5c-0,0.38 0.38,0 0.38,0c-4.61,140.41 -58.98,218.12 -118.05,284.15c-209.73,234.45 -624.79,154.79 -1116.63,131.59c-848.36,-40 -1273.81,-26.58 -1532.97,-12.72c-171.936,9.2 -312.807,18.62 -303.094,12.72c159.745,-97.02 313.339,-156.32 492.969,-181.07c94.379,-13.01 195.947,-16.48 309.37,-10.87c1731.65,85.56 1967.29,125.972 1901.38,-175.617l-15.046,-43.007c-49.687,-138.47 -211.444,-108.466 -212.473,-76.463c-7.342,228.428 122.816,226.129 74.5,277.527c-48.347,51.431 -119.138,-88.17 -174.109,-59.215c-27.333,14.396 58.4,103.085 -0,113.515c-66.29,11.84 -74.994,-83.611 -115.344,-83.34c-53.598,0.36 -35.269,94.06 -101.269,83.34c-61.73,-10.02 -2.472,-79.077 -23.478,-100.07c-49.813,-49.781 -91.777,67.176 -132.697,45.77c-53.798,-28.142 8.506,-120.83 53.677,-178.37c64.312,-81.925 19.54,-117.031 1.54,-105.361c-83.35,53.98 -3.576,103.363 -6.63,107.361c-46.304,60.609 -49.077,75.93 -49.587,72.47c-105.692,-62.289 8.028,60.19 -55.302,86.37c-61.27,25.33 -76.76,-66.68 -119.61,-70.2c-40.58,-3.33 -43.04,72.63 -114.49,70.2c-83.82,-2.85 22.56,-88.37 -46.88,-101.45c-30.5,-5.74 -68.46,66.3 -120.7,33.27c-33.19,-20.99 4.259,-43.53 87.669,-120.53c24.365,-22.494 32.545,-37.582 22.096,-71.287c-10.952,-35.329 -67.783,-44.62 -203.816,-41.074c-98.355,2.564 -299.098,-8.679 -312.258,44.074c-8.373,33.565 8.044,71.802 20.188,96.157c31.097,62.363 104.885,133 49.061,149.33c-67.012,19.603 -78.975,-51.932 -120.812,-44.69c-58.522,10.131 23.655,83.62 -47.875,91.25c-57.923,6.179 -43.842,-86.33 -83.622,-87.25c-56.25,-1.29 -42.77,83.476 -99.072,80.85c-96.339,-4.494 -3.231,-91.33 -62.329,-97.85c-33.8,-3.73 -71.777,68.14 -117.271,36.96c-37.628,-25.79 -22.08,-44.43 44.017,-128.56c2.418,-2.76 -112.377,-79.2 -28.699,-105.931c64.848,-20.716 65.487,59.101 28.699,105.931c-29.023,33.04 -38.925,52.15 -50.28,63.6c-3.419,3.45 -49.564,-60.077 -81.489,-43.327c-30.429,15.965 33.162,80.942 -20,98.842c-96.102,32.35 -57.541,-76.645 -119.863,-86.805c-75.148,-12.25 -70.89,110.49 -158.626,98.58c-77.635,-10.55 3.111,-81.61 -24.999,-98.58c-40.944,-24.72 -102.013,72.78 -167.625,31.25c-50.454,-31.94 75.834,-101.47 112.045,-156.47l-0.001,0c245.877,-373.46 -108.1,-671.868 -0.937,-1080.17c102.505,-390.56 519.736,-603.472 999.298,-417.203c37.87,23.24 78.04,-30.744 114.73,0c12.51,10.48 21.07,30.134 26.7,53.044c40.59,26.272 67.47,71.949 67.47,123.855c-0,61.52 -37.77,114.29 -91.36,136.372Z" style="stroke:#000;stroke-width:64px;"/>
        <path id="Stains" d="M879.427,1271.63c125.453,53.78 265.393,70.41 418.683,69.39c-30.6,69.53 -140.71,144.15 -274.7,109.48c-156.15,-40.39 -157.612,-128.82 -143.983,-178.87Zm961.553,35.22c0.45,8.99 -0.11,18.06 -1.63,27.15c-15.58,93.42 -125.66,152.5 -245.68,131.84c-86.96,-14.97 -155.42,-67.71 -180.31,-131.25c134.54,-2.58 279.77,-15.27 427.62,-27.74Zm144.38,-11.73c144.39,-10.98 288.87,-18.59 426.09,-13.43l11.91,0.61c-10,81.05 -92.19,151.18 -198.95,163.83c-120.91,14.33 -227.84,-50.45 -238.65,-144.57l-0.4,-6.44Zm566.37,-0.3c166.14,25.6 286.7,84.19 373.96,159.07c-54.28,44.11 -143.51,52.97 -227.88,16.51c-83.31,-36.01 -138.56,-106.13 -146.08,-175.58Zm-1858.41,-761.438c18.453,-6.568 37.362,-12.458 56.7,-17.649c27.127,67.108 -8.53,156.509 -87.441,209.879c-86.116,58.245 -191.889,52.033 -238.363,-13.326c69.916,-77.225 161.71,-139.439 269.104,-178.904Zm-411.709,468.445c57.57,24.348 101.172,94.011 105.211,177.807c4.344,90.154 -38.478,168.116 -100.433,192.493c-22.84,-76.524 -33.679,-166.807 -22.915,-274.187c3.293,-32.864 9.387,-64.971 18.137,-96.113Zm2721.42,687.725c126.282,9.389 132.424,376.304 48.007,403.446c-74.187,9.113 -145.173,-73.879 -158.422,-185.219c-13.248,-111.33 36.228,-209.122 110.415,-218.227Zm-368.054,706.474c0,0 109.548,-36.374 169.948,-83.055c50.511,-49.298 90.189,-78.349 144.629,-36.119c94.876,73.597 -99.573,208.857 -314.577,119.174Zm-712.452,5.077c137.681,-0.394 271.194,6.47 392.853,8.027c-37.131,58.79 -118.747,97.26 -208.957,92.942c-79.292,-3.805 -147.345,-50.166 -183.896,-100.969Zm-1226.96,-52.972c138.263,-4.078 261.192,6.259 408.837,12.945c-37.146,60.631 -118.708,100.433 -211.114,95.855c-93.38,-4.624 -167.446,-43.782 -197.723,-108.8Zm636.878,23.945c121.237,7.718 248.244,14.861 380.596,21.154c-40.703,51.368 -106.584,80.681 -190.583,73.949c-79.091,-6.347 -155.805,-42.868 -190.013,-95.103Z" style="fill:#ffce00;"/>
        <g id="Light">
            <path d="M526.663,621c-123.551,84.685 -261.376,301.967 -261.376,484.915c0,379.848 132.093,337.904 480.657,39.256c247.104,-211.718 438.681,-618.86 361.143,-632.597c-322.824,-57.193 -512.612,61.946 -580.424,108.426Z" style="fill:url(#_Linear1);"/>
            <path d="M1744.63,1322.91c-667.448,71.314 -846.642,-47.435 -871.622,-46.226c-5.531,0.268 -5.548,7.414 -5.548,25.469c-0,206.585 377.45,319.291 580.33,333.761c162.703,11.604 488.604,19.369 820.305,-23.41c473.409,-61.055 781.769,907.115 844.324,351.568c4.189,-37.202 45.855,-103.591 -0,-227.255c-70.555,-190.275 -212.431,-297.006 -290.749,-341.3c-328.736,-185.918 -873.636,-94.34 -1077.04,-72.607Z" style="fill:url(#_Linear2);"/>
            <path d="M1424.07,2375.93c-409.865,-17.09 -572.258,-26.782 -701.839,-26.782c-148.99,0 -358.491,42.587 -362.198,66.142c-13.295,84.488 501.756,45.97 688.925,84.138c66.454,13.552 483.054,23.284 816.648,24.281c476.112,1.422 369.921,60.473 677.334,15.023c101.617,-15.023 198.576,-99.678 223.406,-205.414c0.829,-3.534 0.446,-7.761 -0.595,-6.64c-38.338,41.291 -69.428,49.252 -111.054,60.897c-79.496,22.239 -214.789,22.885 -284.908,23.799c-278.009,3.625 -462.147,-15.28 -945.719,-35.444Z" style="fill:url(#_Linear3);"/>
            <path d="M2133.84,2038.56c7.444,-3.436 -20.769,-9.925 -88.263,-16.236c-99.674,-9.32 -191.015,-14.081 -180.678,-9.32c177.444,81.736 251.137,138.439 251.137,138.439c0,0 -73.283,-70.838 17.804,-112.883Z" style="fill:url(#_Linear4);"/>
            <path d="M758.966,2039.11c34.257,-13.679 58.075,10.026 46.35,2c-75.086,-51.4 -304.306,-254.811 -302.226,-251.689c137.204,205.889 233.091,313.025 229.025,299.413c-9.64,-32.274 11.405,-43.556 26.851,-49.724Z" style="fill:url(#_Linear5);"/>
        </g>
        <path id="Mouth" d="M1553.67,1095.29c0,-0 -16.431,56.448 -38.73,56.448c-33.815,9.212 -139.68,25.193 -185.764,25.193c-35.846,-0 -241.664,-10.464 -320.578,-70.59c-24.398,-18.59 233.155,8.752 314.765,9.882c30.33,0.421 132.202,2.915 235.724,-41.899c1.162,-0.503 -2.992,12.634 -5.417,20.966Z" style="fill:#dc0408;stroke:#7d0000;stroke-width:8.42px;"/>
        <path id="Outline" d="M1398.83,872.199c-2.01,4.782 -3.07,6.618 -2.81,6.688c257.69,70.059 167.33,306.298 33.72,339.868c-34.63,8.71 -229.57,41.21 -448.767,2.28c-173.433,-30.8 -213.633,-8.89 -185.008,8.25c391.585,234.46 1164.57,19.42 1613.49,51.52c860.69,61.54 733.96,794.14 732.89,840.5c-0,0.38 0.38,0 0.38,0c-4.61,140.41 -58.98,218.12 -118.05,284.15c-27.055,30.243 -57.526,55.259 -91.138,75.844c-226.952,138.994 -597.098,75.953 -1025.49,55.746c-848.36,-40 -1273.81,-26.58 -1532.97,-12.72c-171.936,9.2 -312.807,18.62 -303.094,12.72c159.745,-97.02 313.339,-156.32 492.969,-181.07c94.379,-13.01 195.947,-16.48 309.37,-10.87c1731.65,85.56 1967.29,125.972 1901.38,-175.617l-15.046,-43.007c-49.687,-138.47 -211.444,-108.466 -212.473,-76.463c-7.342,228.428 122.816,226.129 74.5,277.527c-48.347,51.431 -119.138,-88.17 -174.109,-59.215c-27.333,14.396 58.4,103.085 -0,113.515c-66.29,11.84 -74.994,-83.611 -115.344,-83.34c-53.598,0.36 -35.269,94.06 -101.269,83.34c-61.73,-10.02 -2.472,-79.077 -23.478,-100.07c-49.813,-49.781 -91.777,67.176 -132.697,45.77c-53.798,-28.142 8.506,-120.83 53.677,-178.37c64.312,-81.925 19.54,-117.031 1.54,-105.361c-83.35,53.98 -3.576,103.363 -6.63,107.361c-46.304,60.609 -49.077,75.93 -49.587,72.47c-105.692,-62.289 8.028,60.19 -55.302,86.37c-61.27,25.33 -76.76,-66.68 -119.61,-70.2c-40.58,-3.33 -43.04,72.63 -114.49,70.2c-83.82,-2.85 22.56,-88.37 -46.88,-101.45c-30.5,-5.74 -68.46,66.3 -120.7,33.27c-33.19,-20.99 -0.632,-43.53 82.778,-120.53c24.365,-22.494 37.436,-37.582 26.987,-71.287c-10.952,-35.329 -67.783,-44.62 -203.816,-41.074c-98.355,2.564 -299.098,-8.679 -312.258,44.074c-8.373,33.565 8.044,71.802 20.188,96.157c31.097,62.363 104.885,133 49.061,149.33c-67.012,19.603 -78.975,-51.932 -120.812,-44.69c-58.522,10.131 23.655,83.62 -47.875,91.25c-57.923,6.179 -43.842,-86.33 -83.622,-87.25c-56.25,-1.29 -42.77,83.476 -99.072,80.85c-96.339,-4.494 -3.231,-91.33 -62.329,-97.85c-33.8,-3.73 -71.777,68.14 -117.271,36.96c-37.628,-25.79 -22.08,-44.43 44.017,-128.56c2.418,-2.76 -112.377,-79.2 -28.699,-105.931c64.848,-20.716 65.487,59.101 28.699,105.931c-29.023,33.04 -38.925,52.15 -50.28,63.6c-3.419,3.45 -49.564,-60.077 -81.489,-43.327c-30.429,15.965 33.162,80.942 -20,98.842c-96.102,32.35 -57.541,-76.645 -119.863,-86.805c-75.148,-12.25 -70.89,110.49 -158.626,98.58c-77.635,-10.55 3.111,-81.61 -24.999,-98.58c-40.944,-24.72 -102.013,72.78 -167.625,31.25c-50.454,-31.94 75.834,-101.47 112.045,-156.47l-0.001,0c245.877,-373.46 -108.1,-671.868 -0.937,-1080.17c102.505,-390.56 519.736,-603.472 999.298,-417.203c37.87,23.24 78.04,-30.744 114.73,0c12.51,10.48 21.07,30.134 26.7,53.044c40.59,26.272 67.47,71.949 67.47,123.855c-0,61.52 -37.77,114.29 -91.36,136.372Z" style="fill:none;stroke:#fff;stroke-width:10px;"/>
        <g id="Eyes">
            <g id="Left">
                <circle cx="1344.77" cy="736.702" r="147.426" style="fill:#fff;"/>
                <circle cx="1386.65" cy="770.147" r="75.083"/>
                <circle cx="1349.18" cy="741.112" r="13.097" style="fill:#fff;"/>
            </g>
            <g id="Right">
                <circle cx="954.77" cy="736.702" r="161.14" style="fill:#fff;"/>
                <circle cx="1000.55" cy="773.258" r="82.067"/>
                <circle cx="960.655" cy="742.587" r="14.572" style="fill:#fff;"/>
            </g>
        </g>
    </g>
    <defs>
        <linearGradient id="_Linear1" x1="0" y1="0" x2="1" y2="0" gradientUnits="userSpaceOnUse" gradientTransform="matrix(-194.58,-147.633,46.497,-61.2828,700.386,971.075)"><stop offset="0" style="stop-color:#0e0000;stop-opacity:0.36"/><stop offset="1" style="stop-color:#fff;stop-opacity:0.36"/></linearGradient>
        <linearGradient id="_Linear2" x1="0" y1="0" x2="1" y2="0" gradientUnits="userSpaceOnUse" gradientTransform="matrix(-12.676,-253.77,76.7758,-3.83501,1691.89,1606.53)"><stop offset="0" style="stop-color:#0e0000;stop-opacity:0.36"/><stop offset="1" style="stop-color:#fff;stop-opacity:0.36"/></linearGradient>
        <linearGradient id="_Linear3" x1="0" y1="0" x2="1" y2="0" gradientUnits="userSpaceOnUse" gradientTransform="matrix(3.68852,-104.493,76.8237,2.71182,1299.07,2470.78)"><stop offset="0" style="stop-color:#0e0000;stop-opacity:0.36"/><stop offset="1" style="stop-color:#fff;stop-opacity:0.36"/></linearGradient>
        <linearGradient id="_Linear4" x1="0" y1="0" x2="1" y2="0" gradientUnits="userSpaceOnUse" gradientTransform="matrix(53.7115,-230.615,50.8701,11.8479,1969.88,2160.62)"><stop offset="0" style="stop-color:#0e0000;stop-opacity:0.21"/><stop offset="0.38" style="stop-color:#180a0a;stop-opacity:0.24"/><stop offset="0.49" style="stop-color:#342828;stop-opacity:0.33"/><stop offset="0.57" style="stop-color:#574e4e;stop-opacity:0.43"/><stop offset="0.79" style="stop-color:#d4d2d2;stop-opacity:0.85"/><stop offset="1" style="stop-color:#fff;stop-opacity:1"/></linearGradient>
        <linearGradient id="_Linear5" x1="0" y1="0" x2="1" y2="0" gradientUnits="userSpaceOnUse" gradientTransform="matrix(188.502,-143.301,31.6099,41.5807,674.454,2106.19)"><stop offset="0" style="stop-color:#0e0000;stop-opacity:0.21"/><stop offset="0.19" style="stop-color:#110404;stop-opacity:0.24"/><stop offset="0.28" style="stop-color:#281c1c;stop-opacity:0.44"/><stop offset="1" style="stop-color:#fff;stop-opacity:1"/></linearGradient>
    </defs>
</svg>
