<?xml version="1.0" encoding="UTF-8" standalone="no"?>
<!DOCTYPE svg PUBLIC "-//W3C//DTD SVG 1.1//EN" "http://www.w3.org/Graphics/SVG/1.1/DTD/svg11.dtd">
<svg width="100%" height="100%" viewBox="0 0 3225 3225" version="1.1" xmlns="http://www.w3.org/2000/svg" xmlns:xlink="http://www.w3.org/1999/xlink" xml:space="preserve" xmlns:serif="http://www.serif.com/" style="fill-rule:evenodd;clip-rule:evenodd;stroke-linejoin:round;stroke-miterlimit:2;">
    <g id="Salamandra">
        <path id="body-black" serif:id="body black" d="M1398.83,872.199C1396.82,876.981 1395.76,878.817 1396.02,878.887C1653.71,948.946 1563.35,1185.18 1429.74,1218.76C1395.11,1227.46 1200.17,1259.96 980.976,1221.04C807.543,1190.24 767.343,1212.14 795.968,1229.29C1187.55,1463.75 1960.53,1248.7 2409.45,1280.81C3270.14,1342.35 3143.41,2074.95 3142.34,2121.3C3142.34,2121.68 3142.72,2121.3 3142.72,2121.3C3138.11,2261.72 3083.74,2339.43 3024.67,2405.45C2814.94,2639.91 2399.88,2560.24 1908.04,2537.05C1059.68,2497.05 634.233,2510.47 375.071,2524.33C203.135,2533.53 62.264,2542.95 71.977,2537.05C231.722,2440.03 385.316,2380.72 564.946,2355.97C659.325,2342.97 760.893,2339.49 874.316,2345.11C2605.96,2430.66 2841.61,2471.08 2775.69,2169.49L2760.65,2126.48C2710.96,1988.01 2549.2,2018.02 2548.17,2050.02C2540.83,2278.45 2670.99,2276.15 2622.67,2327.55C2574.33,2378.98 2503.53,2239.38 2448.56,2268.33C2421.23,2282.73 2506.96,2371.41 2448.56,2381.85C2382.27,2393.68 2373.57,2298.23 2333.22,2298.51C2279.62,2298.87 2297.95,2392.57 2231.95,2381.85C2170.22,2371.83 2229.48,2302.77 2208.47,2281.78C2158.66,2231.99 2116.7,2348.95 2075.78,2327.55C2021.98,2299.4 2084.28,2206.72 2129.45,2149.18C2193.76,2067.25 2148.99,2032.14 2130.99,2043.81C2047.64,2097.79 2127.42,2147.18 2124.36,2151.18C2078.06,2211.78 2075.29,2227.11 2074.78,2223.64C1969.08,2161.36 2082.8,2283.84 2019.47,2310.01C1958.2,2335.35 1942.71,2243.34 1899.86,2239.82C1859.28,2236.49 1856.82,2312.45 1785.37,2310.01C1701.55,2307.16 1807.93,2221.64 1738.49,2208.57C1707.99,2202.83 1670.03,2274.87 1617.79,2241.84C1584.6,2220.85 1622.05,2198.3 1705.46,2121.3C1729.83,2098.81 1738.01,2083.72 1727.56,2050.02C1716.61,2014.69 1659.78,2005.4 1523.74,2008.94C1425.39,2011.51 1224.64,2000.27 1211.49,2053.02C1203.11,2086.58 1219.53,2124.82 1231.67,2149.18C1262.77,2211.54 1336.56,2282.18 1280.73,2298.51C1213.72,2318.11 1201.76,2246.57 1159.92,2253.82C1101.4,2263.95 1183.58,2337.43 1112.05,2345.07C1054.12,2351.24 1068.2,2258.74 1028.42,2257.82C972.175,2256.53 985.655,2341.29 929.353,2338.66C833.014,2334.17 926.122,2247.34 867.024,2240.82C833.224,2237.09 795.247,2308.95 749.753,2277.78C712.125,2251.99 727.673,2233.35 793.77,2149.22C796.188,2146.45 681.393,2070.01 765.071,2043.28C829.919,2022.57 830.558,2102.39 793.77,2149.22C764.747,2182.26 754.845,2201.37 743.49,2212.82C740.071,2216.26 693.926,2152.74 662.001,2169.49C631.572,2185.45 695.163,2250.43 642.001,2268.33C545.899,2300.68 584.46,2191.68 522.138,2181.53C446.99,2169.28 451.248,2292.01 363.512,2280.11C285.877,2269.55 366.623,2198.49 338.513,2181.53C297.569,2156.8 236.5,2254.3 170.888,2212.78C120.434,2180.84 246.722,2111.3 282.933,2056.3L282.932,2056.3C528.809,1682.85 174.832,1384.44 281.995,976.131C384.5,585.571 801.731,372.659 1281.29,558.928C1319.16,582.168 1359.33,528.184 1396.02,558.928C1408.53,569.408 1417.09,589.062 1422.72,611.972C1463.31,638.244 1490.19,683.921 1490.19,735.827C1490.19,797.347 1452.42,850.117 1398.83,872.199Z" style="stroke:black;stroke-width:65.71px;"/>
        <path id="mouth" d="M1560.86,1064.05C1564.33,1062.27 1557.4,1098.09 1539.51,1130.4C1506.21,1152.16 1357.83,1173.52 1310.8,1173.52C1274.22,1173.52 908.967,1164.49 828.43,1103.13C803.531,1084.16 1140.81,1124.6 1310.8,1116.13C1364.18,1113.46 1488.6,1101.15 1560.86,1064.05Z" style="fill:rgb(220,4,8);stroke:rgb(62,0,0);stroke-width:8.59px;"/>
        <path id="stains" d="M879.427,1271.63C1004.88,1325.41 1144.82,1342.04 1298.11,1341.02C1267.51,1410.55 1157.4,1485.17 1023.41,1450.5C867.26,1410.11 865.798,1321.68 879.427,1271.63ZM3082.88,1668.22C3165.14,1854.22 3150.14,2049.3 3145.43,2107.22C3137.44,2110.46 3129.07,2112.62 3120.39,2113.69C3038.58,2123.74 2960.3,2032.22 2945.69,1909.44C2931.08,1786.67 2985.64,1678.83 3067.45,1668.79C3072.62,1668.15 3077.76,1667.92 3082.88,1668.22ZM1840.98,1306.85C1841.43,1315.84 1840.87,1324.91 1839.35,1334C1823.77,1427.42 1713.69,1486.5 1593.67,1465.84C1506.71,1450.87 1438.25,1398.13 1413.36,1334.59C1547.9,1332.01 1693.13,1319.32 1840.98,1306.85ZM1985.36,1295.12C2129.75,1284.14 2274.23,1276.53 2411.45,1281.69L2423.36,1282.3C2413.36,1363.35 2331.17,1433.48 2224.41,1446.13C2103.5,1460.46 1996.57,1395.68 1985.76,1301.56L1985.36,1295.12ZM2551.73,1294.82C2717.87,1320.42 2838.43,1379.01 2925.69,1453.89C2871.41,1498 2782.18,1506.86 2697.81,1470.4C2614.5,1434.39 2559.25,1364.27 2551.73,1294.82ZM1990.89,2539.67C2030.16,2491.08 2099.96,2459.05 2179.2,2459.69C2269.35,2460.43 2346.6,2503.25 2380.32,2563.92C2258.98,2558.67 2128.09,2547.76 1990.89,2539.67ZM2654.44,2561.03C2664.6,2493.16 2719.71,2425.7 2801.43,2391.07C2884.55,2355.85 2972.05,2364.4 3026.49,2406.63C2936.81,2504.83 2809.19,2546.89 2654.44,2561.03ZM1363.79,2515.64C1402.83,2466.16 1473.27,2433.43 1553.36,2434.08C1638.42,2434.78 1712,2472.94 1748.36,2528.21C1614.72,2522.77 1486.38,2518.66 1363.79,2515.64ZM668.792,2508.94C702.265,2446.7 781.617,2403.29 873.737,2404.04C964.896,2404.78 1042.87,2448.56 1075.97,2510.31C930.353,2508.51 794.427,2508.22 668.792,2508.94ZM693.318,533.382C711.771,526.814 730.68,520.924 750.018,515.733C777.145,582.841 741.488,672.242 662.577,725.612C576.461,783.857 470.688,777.645 424.214,712.286C494.13,635.061 585.924,572.847 693.318,533.382ZM281.609,1001.83C339.179,1026.17 382.781,1095.84 386.82,1179.63C391.164,1269.79 348.342,1347.75 286.387,1372.13C263.547,1295.6 252.708,1205.32 263.472,1097.94C266.765,1065.08 272.859,1032.97 281.609,1001.83Z" style="fill:rgb(255,206,0);stroke:white;stroke-width:0.75px;"/>
        <path id="body-white" serif:id="body black" d="M1398.83,872.199C1396.82,876.981 1395.76,878.817 1396.02,878.887C1653.71,948.946 1563.35,1185.18 1429.74,1218.76C1395.11,1227.46 1200.17,1259.96 980.976,1221.04C807.543,1190.24 767.343,1212.14 795.968,1229.29C1187.55,1463.75 1960.53,1248.7 2409.45,1280.81C3270.14,1342.35 3143.41,2074.95 3142.34,2121.3C3142.34,2121.68 3142.72,2121.3 3142.72,2121.3C3138.11,2261.72 3083.74,2339.43 3024.67,2405.45C2814.94,2639.91 2399.88,2560.24 1908.04,2537.05C1059.68,2497.05 634.233,2510.47 375.071,2524.33C203.135,2533.53 62.264,2542.95 71.977,2537.05C231.722,2440.03 385.316,2380.72 564.946,2355.97C659.325,2342.97 760.893,2339.49 874.316,2345.11C2605.96,2430.66 2841.61,2471.08 2775.69,2169.49L2760.65,2126.48C2710.96,1988.01 2549.2,2018.02 2548.17,2050.02C2540.83,2278.45 2670.99,2276.15 2622.67,2327.55C2574.33,2378.98 2503.53,2239.38 2448.56,2268.33C2421.23,2282.73 2506.96,2371.41 2448.56,2381.85C2382.27,2393.68 2373.57,2298.23 2333.22,2298.51C2279.62,2298.87 2297.95,2392.57 2231.95,2381.85C2170.22,2371.83 2229.48,2302.77 2208.47,2281.78C2158.66,2231.99 2116.7,2348.95 2075.78,2327.55C2021.98,2299.4 2084.28,2206.72 2129.45,2149.18C2193.76,2067.25 2148.99,2032.14 2130.99,2043.81C2047.64,2097.79 2127.42,2147.18 2124.36,2151.18C2078.06,2211.78 2075.29,2227.11 2074.78,2223.64C1969.08,2161.36 2082.8,2283.84 2019.47,2310.01C1958.2,2335.35 1942.71,2243.34 1899.86,2239.82C1859.28,2236.49 1856.82,2312.45 1785.37,2310.01C1701.55,2307.16 1807.93,2221.64 1738.49,2208.57C1707.99,2202.83 1670.03,2274.87 1617.79,2241.84C1584.6,2220.85 1617.16,2198.3 1700.57,2121.3C1724.94,2098.81 1738.01,2083.72 1727.56,2050.02C1716.61,2014.69 1659.78,2005.4 1523.74,2008.94C1425.39,2011.51 1224.64,2000.27 1211.49,2053.02C1203.11,2086.58 1219.53,2124.82 1231.67,2149.18C1262.77,2211.54 1336.56,2282.18 1280.73,2298.51C1213.72,2318.11 1201.76,2246.57 1159.92,2253.82C1101.4,2263.95 1183.58,2337.43 1112.05,2345.07C1054.12,2351.24 1068.2,2258.74 1028.42,2257.82C972.175,2256.53 985.655,2341.29 929.353,2338.66C833.014,2334.17 926.122,2247.34 867.024,2240.82C833.224,2237.09 795.247,2308.95 749.753,2277.78C712.125,2251.99 727.673,2233.35 793.77,2149.22C796.188,2146.45 681.393,2070.01 765.071,2043.28C829.919,2022.57 830.558,2102.39 793.77,2149.22C764.747,2182.26 754.845,2201.37 743.49,2212.82C740.071,2216.26 693.926,2152.74 662.001,2169.49C631.572,2185.45 695.163,2250.43 642.001,2268.33C545.899,2300.68 584.46,2191.68 522.138,2181.53C446.99,2169.28 451.248,2292.01 363.512,2280.11C285.877,2269.55 366.623,2198.49 338.513,2181.53C297.569,2156.8 236.5,2254.3 170.888,2212.78C120.434,2180.84 246.722,2111.3 282.933,2056.3L282.932,2056.3C528.809,1682.85 174.832,1384.44 281.995,976.131C384.5,585.571 801.731,372.659 1281.29,558.928C1319.16,582.168 1359.33,528.184 1396.02,558.928C1408.53,569.408 1417.09,589.062 1422.72,611.972C1463.31,638.244 1490.19,683.921 1490.19,735.827C1490.19,797.347 1452.42,850.117 1398.83,872.199Z" style="fill:none;stroke:white;stroke-width:10px;"/>
        <g id="eyes">
            <g id="left">
                <circle cx="1344.77" cy="736.702" r="147.426" style="fill:white;"/>
                <circle cx="1386.65" cy="770.147" r="75.083"/>
                <circle cx="1349.18" cy="741.112" r="13.097" style="fill:white;"/>
            </g>
            <g id="right">
                <circle cx="954.77" cy="736.702" r="161.14" style="fill:white;"/>
                <circle cx="1000.55" cy="773.258" r="82.067"/>
                <circle cx="960.655" cy="742.587" r="14.572" style="fill:white;"/>
            </g>
        </g>
    </g>
</svg>
