<?xml version="1.0" encoding="UTF-8" standalone="no"?>
<!DOCTYPE svg PUBLIC "-//W3C//DTD SVG 1.1//EN" "http://www.w3.org/Graphics/SVG/1.1/DTD/svg11.dtd">
<svg width="100%" height="100%" viewBox="0 0 3225 3225" version="1.1" xmlns="http://www.w3.org/2000/svg" xmlns:xlink="http://www.w3.org/1999/xlink" xml:space="preserve" xmlns:serif="http://www.serif.com/" style="fill-rule:evenodd;clip-rule:evenodd;stroke-linejoin:round;stroke-miterlimit:2;">
    <g>
        <g id="Salamandra">
            <path d="M1415.43,826.311C1405.14,868.114 1397.38,879.586 1398.03,879.762C1655.72,949.821 1565.36,1186.06 1431.75,1219.63C1397.12,1228.34 1202.18,1260.84 982.983,1221.91C809.55,1191.11 769.35,1213.02 797.975,1230.16C1189.56,1464.62 1962.54,1249.58 2411.46,1281.68C3272.15,1343.22 3145.42,2075.82 3144.35,2122.18C3144.35,2122.56 3144.73,2122.18 3144.73,2122.18C3140.12,2262.59 3085.75,2340.3 3026.68,2406.33C2816.95,2640.78 2401.89,2561.12 1910.05,2537.92C1061.69,2497.92 636.24,2511.34 377.078,2525.2C205.142,2534.4 64.271,2543.82 73.984,2537.92C233.729,2440.9 387.323,2381.6 566.953,2356.85C661.332,2343.84 762.9,2340.37 876.323,2345.98C2607.97,2431.54 2828.08,2443.4 2761.38,2122.18L2762.2,2122.18C2725.11,1945.88 2557.76,1933.6 2530.68,1973.66C2416.78,2142.16 2647.07,2261.77 2566.91,2299.42C2504.35,2328.79 2475.23,2232.58 2423.96,2250.53C2394.8,2260.73 2456.09,2343.29 2397.69,2353.72C2331.4,2365.56 2350.01,2275.05 2279.86,2272.4C2202.66,2269.49 2231.48,2364.44 2165.48,2353.72C2103.75,2343.7 2159.31,2281.5 2115.48,2253.65C2065.6,2221.96 2029.06,2317.01 1986.39,2303.54C1938.07,2288.29 1985.91,2196.44 2037.46,2150.05C2114.88,2080.38 2087.4,1962.52 2069.4,1974.19C1986.05,2028.17 2049.38,2130.53 2031.37,2150.05C1974.2,2212.04 1969.56,2250.86 1969.05,2247.4C1892.07,2224.57 1989,2322.67 1925.67,2348.85C1864.4,2374.18 1848.91,2282.17 1806.06,2278.65C1765.48,2275.32 1763.02,2351.28 1691.57,2348.85C1607.75,2346 1714.13,2260.48 1644.69,2247.4C1614.19,2241.66 1576.23,2313.7 1523.99,2280.67C1490.8,2259.68 1517.7,2227.05 1601.11,2150.05C1657.1,2098.36 1709.71,1932.86 1462.15,1939.32C1283.38,1943.98 1331.22,2100.34 1365.65,2150.09C1397.21,2195.7 1460.49,2282.67 1419.65,2299.42C1338.52,2332.68 1337.03,2219.74 1283.49,2221.42C1206.23,2223.86 1280.57,2338.35 1209.04,2345.98C1128.89,2354.52 1140.16,2222.34 1100.38,2221.42C1044.13,2220.13 1009.49,2329.16 942.36,2328.54C836.363,2327.55 968.331,2220.21 909.233,2213.69C875.433,2209.96 797.254,2309.83 751.76,2278.65C714.132,2252.86 729.68,2234.22 795.777,2150.09C798.195,2147.33 698.364,2040.54 797.478,1973.66C853.908,1935.58 832.565,2103.26 795.777,2150.09C766.754,2183.13 756.852,2202.24 745.497,2213.69C742.078,2217.14 713.226,2203.53 686.163,2213.69C636.219,2232.43 717.451,2310.64 664.289,2328.54C568.187,2360.89 585.529,2257.56 523.207,2247.4C448.059,2235.15 452.317,2357.89 364.581,2345.98C286.946,2335.43 367.692,2264.37 339.582,2247.4C298.638,2222.68 237.569,2320.18 171.957,2278.65C121.503,2246.71 247.791,2177.18 284.002,2122.18L284.001,2122.18C529.878,1748.72 105.484,1284.12 212.647,875.814C315.152,485.254 810.883,269.911 1283.3,559.803C1321.17,583.043 1361.34,529.059 1398.03,559.803C1412.99,572.34 1422.3,598.004 1427.71,626.667C1462.14,645.096 1485.62,681.645 1485.62,723.682C1485.62,770.548 1456.44,810.591 1415.43,826.311Z" style="stroke:white;stroke-width:9.38px;"/>
            <path d="M1415.43,826.311C1405.14,868.114 1397.38,879.586 1398.03,879.762C1655.72,949.821 1565.36,1186.06 1431.75,1219.63C1397.12,1228.34 1202.18,1260.84 982.983,1221.91C809.55,1191.11 769.35,1213.02 797.975,1230.16C1189.56,1464.62 1962.54,1249.58 2411.46,1281.68C3272.15,1343.22 3145.42,2075.82 3144.35,2122.18C3144.35,2122.56 3144.73,2122.18 3144.73,2122.18C3140.12,2262.59 3085.75,2340.3 3026.68,2406.33C2816.95,2640.78 2401.89,2561.12 1910.05,2537.92C1061.69,2497.92 636.24,2511.34 377.078,2525.2C205.142,2534.4 64.271,2543.82 73.984,2537.92C233.729,2440.9 387.323,2381.6 566.953,2356.85C661.332,2343.84 762.9,2340.37 876.323,2345.98C2607.97,2431.54 2828.08,2443.4 2761.38,2122.18L2762.2,2122.18C2725.11,1945.88 2557.76,1933.6 2530.68,1973.66C2416.78,2142.16 2647.07,2261.77 2566.91,2299.42C2504.35,2328.79 2475.23,2232.58 2423.96,2250.53C2394.8,2260.73 2456.09,2343.29 2397.69,2353.72C2331.4,2365.56 2350.01,2275.05 2279.86,2272.4C2202.66,2269.49 2231.48,2364.44 2165.48,2353.72C2103.75,2343.7 2159.31,2281.5 2115.48,2253.65C2065.6,2221.96 2029.06,2317.01 1986.39,2303.54C1938.07,2288.29 1985.91,2196.44 2037.46,2150.05C2114.88,2080.38 2087.4,1962.52 2069.4,1974.19C1986.05,2028.17 2049.38,2130.53 2031.37,2150.05C1974.2,2212.04 1969.56,2250.86 1969.05,2247.4C1892.07,2224.57 1989,2322.67 1925.67,2348.85C1864.4,2374.18 1848.91,2282.17 1806.06,2278.65C1765.48,2275.32 1763.02,2351.28 1691.57,2348.85C1607.75,2346 1714.13,2260.48 1644.69,2247.4C1614.19,2241.66 1576.23,2313.7 1523.99,2280.67C1490.8,2259.68 1517.7,2227.05 1601.11,2150.05C1657.1,2098.36 1709.71,1932.86 1462.15,1939.32C1283.38,1943.98 1331.22,2100.34 1365.65,2150.09C1397.21,2195.7 1460.49,2282.67 1419.65,2299.42C1338.52,2332.68 1337.03,2219.74 1283.49,2221.42C1206.23,2223.86 1280.57,2338.35 1209.04,2345.98C1128.89,2354.52 1140.16,2222.34 1100.38,2221.42C1044.13,2220.13 1009.49,2329.16 942.36,2328.54C836.363,2327.55 968.331,2220.21 909.233,2213.69C875.433,2209.96 797.254,2309.83 751.76,2278.65C714.132,2252.86 729.68,2234.22 795.777,2150.09C798.195,2147.33 698.364,2040.54 797.478,1973.66C853.908,1935.58 832.565,2103.26 795.777,2150.09C766.754,2183.13 756.852,2202.24 745.497,2213.69C742.078,2217.14 713.226,2203.53 686.163,2213.69C636.219,2232.43 717.451,2310.64 664.289,2328.54C568.187,2360.89 585.529,2257.56 523.207,2247.4C448.059,2235.15 452.317,2357.89 364.581,2345.98C286.946,2335.43 367.692,2264.37 339.582,2247.4C298.638,2222.68 237.569,2320.18 171.957,2278.65C121.503,2246.71 247.791,2177.18 284.002,2122.18L284.001,2122.18C529.878,1748.72 105.484,1284.12 212.647,875.814C315.152,485.254 810.883,269.911 1283.3,559.803C1321.17,583.043 1361.34,529.059 1398.03,559.803C1412.99,572.34 1422.3,598.004 1427.71,626.667C1462.14,645.096 1485.62,681.645 1485.62,723.682C1485.62,770.548 1456.44,810.591 1415.43,826.311Z" style="stroke:black;stroke-width:65.71px;"/>
            <g>
                <path d="M879.427,1271.63C1004.88,1325.41 1144.82,1342.04 1298.11,1341.02C1267.51,1410.55 1157.4,1485.17 1023.41,1450.5C867.26,1410.11 865.798,1321.68 879.427,1271.63Z" style="fill:rgb(255,206,0);stroke:white;stroke-width:0.75px;"/>
                <path d="M243.194,780.765C297.409,811.877 332.293,886.289 326.199,969.96C319.642,1059.98 267.732,1132.21 203.29,1148.94C189.843,1070.22 189.969,979.289 213.601,873.99C220.833,841.763 230.753,810.625 243.194,780.765Z" style="fill:rgb(255,206,0);stroke:white;stroke-width:0.75px;"/>
                <path d="M787.29,427.426C806.836,426.144 826.634,425.64 846.655,425.925C854.433,497.889 795.726,574.161 705.243,603.964C606.498,636.489 506.438,601.64 479.571,526.077C567.912,470.87 673.202,436.076 787.29,427.426Z" style="fill:rgb(255,206,0);stroke:white;stroke-width:0.75px;"/>
                <path d="M3082.88,1668.22C3165.14,1854.22 3150.14,2049.3 3145.43,2107.22C3137.44,2110.46 3129.07,2112.62 3120.39,2113.69C3038.58,2123.74 2960.3,2032.22 2945.69,1909.44C2931.08,1786.67 2985.64,1678.83 3067.45,1668.79C3072.62,1668.15 3077.76,1667.92 3082.88,1668.22Z" style="fill:rgb(255,206,0);stroke:white;stroke-width:0.75px;"/>
                <path d="M1840.98,1306.85C1841.43,1315.84 1840.87,1324.91 1839.35,1334C1823.77,1427.42 1713.69,1486.5 1593.67,1465.84C1506.71,1450.87 1438.25,1398.13 1413.36,1334.59C1547.9,1332.01 1693.13,1319.32 1840.98,1306.85Z" style="fill:rgb(255,206,0);stroke:white;stroke-width:0.75px;"/>
                <path d="M1985.36,1295.12C2129.75,1284.14 2274.23,1276.53 2411.45,1281.69L2423.36,1282.3C2413.36,1363.35 2331.17,1433.48 2224.41,1446.13C2103.5,1460.46 1996.57,1395.68 1985.76,1301.56L1985.36,1295.12Z" style="fill:rgb(255,206,0);stroke:white;stroke-width:0.75px;"/>
                <path d="M2551.73,1294.82C2717.87,1320.42 2838.43,1379.01 2925.69,1453.89C2871.41,1498 2782.18,1506.86 2697.81,1470.4C2614.5,1434.39 2559.25,1364.27 2551.73,1294.82Z" style="fill:rgb(255,206,0);stroke:white;stroke-width:0.75px;"/>
                <path d="M1990.89,2539.67C2030.16,2491.08 2099.96,2459.05 2179.2,2459.69C2269.35,2460.43 2346.6,2503.25 2380.32,2563.92C2258.98,2558.67 2128.09,2547.76 1990.89,2539.67ZM2654.44,2561.03C2664.6,2493.16 2719.71,2425.7 2801.43,2391.07C2884.55,2355.85 2972.05,2364.4 3026.49,2406.63C2936.81,2504.83 2809.19,2546.89 2654.44,2561.03ZM1363.79,2515.64C1402.83,2466.16 1473.27,2433.43 1553.36,2434.08C1638.42,2434.78 1712,2472.94 1748.36,2528.21C1614.72,2522.77 1486.38,2518.66 1363.79,2515.64ZM668.792,2508.94C702.265,2446.7 781.617,2403.29 873.737,2404.04C964.896,2404.78 1042.87,2448.56 1075.97,2510.31C930.353,2508.51 794.427,2508.22 668.792,2508.94Z" style="fill:rgb(255,206,0);"/>
            </g>
            <path d="M987.703,1129.2C1063.49,1186.76 1388.14,1172.33 1435.19,1162.87C1477.92,1154.28 1523.76,1137.51 1540.69,1129.2C1547.89,1125.66 1557.97,1094.51 1553.45,1095.73C1513.66,1106.46 1473.81,1122.05 1435.19,1129.2C1253.35,1162.87 962.777,1110.26 987.703,1129.2Z" style="fill:rgb(220,4,8);stroke:rgb(125,0,0);stroke-width:8.59px;"/>
            <path d="M1415.43,826.311C1405.14,868.114 1397.38,879.586 1398.03,879.762C1655.72,949.821 1565.36,1186.06 1431.75,1219.63C1397.12,1228.34 1202.18,1260.84 982.983,1221.91C809.55,1191.11 769.35,1213.02 797.975,1230.16C1189.56,1464.62 1962.54,1249.58 2411.46,1281.68C3272.15,1343.22 3145.42,2075.82 3144.35,2122.18C3144.35,2122.56 3144.73,2122.18 3144.73,2122.18C3140.12,2262.59 3085.75,2340.3 3026.68,2406.33C2816.95,2640.78 2401.89,2561.12 1910.05,2537.92C1061.69,2497.92 636.24,2511.34 377.078,2525.2C205.142,2534.4 64.271,2543.82 73.984,2537.92C233.729,2440.9 387.323,2381.6 566.953,2356.85C661.332,2343.84 762.9,2340.37 876.323,2345.98C2607.97,2431.54 2828.08,2443.4 2761.38,2122.18L2762.2,2122.18C2725.11,1945.88 2557.76,1933.6 2530.68,1973.66C2416.78,2142.16 2647.07,2261.77 2566.91,2299.42C2504.35,2328.79 2475.23,2232.58 2423.96,2250.53C2394.8,2260.73 2456.09,2343.29 2397.69,2353.72C2331.4,2365.56 2350.01,2275.05 2279.86,2272.4C2202.66,2269.49 2231.48,2364.44 2165.48,2353.72C2103.75,2343.7 2159.31,2281.5 2115.48,2253.65C2065.6,2221.96 2029.06,2317.01 1986.39,2303.54C1938.07,2288.29 1985.91,2196.44 2037.46,2150.05C2114.88,2080.38 2087.4,1962.52 2069.4,1974.19C1986.05,2028.17 2049.38,2130.53 2031.37,2150.05C1974.2,2212.04 1969.56,2250.86 1969.05,2247.4C1892.07,2224.57 1989,2322.67 1925.67,2348.85C1864.4,2374.18 1848.91,2282.17 1806.06,2278.65C1765.48,2275.32 1763.02,2351.28 1691.57,2348.85C1607.75,2346 1714.13,2260.48 1644.69,2247.4C1614.19,2241.66 1576.23,2313.7 1523.99,2280.67C1490.8,2259.68 1517.7,2227.05 1601.11,2150.05C1657.1,2098.36 1709.71,1932.86 1462.15,1939.32C1283.38,1943.98 1331.22,2100.34 1365.65,2150.09C1397.21,2195.7 1460.49,2282.67 1419.65,2299.42C1338.52,2332.68 1337.03,2219.74 1283.49,2221.42C1206.23,2223.86 1280.57,2338.35 1209.04,2345.98C1128.89,2354.52 1140.16,2222.34 1100.38,2221.42C1044.13,2220.13 1009.49,2329.16 942.36,2328.54C836.363,2327.55 968.331,2220.21 909.233,2213.69C875.433,2209.96 797.254,2309.83 751.76,2278.65C714.132,2252.86 729.68,2234.22 795.777,2150.09C798.195,2147.33 698.364,2040.54 797.478,1973.66C853.908,1935.58 832.565,2103.26 795.777,2150.09C766.754,2183.13 756.852,2202.24 745.497,2213.69C742.078,2217.14 713.226,2203.53 686.163,2213.69C636.219,2232.43 717.451,2310.64 664.289,2328.54C568.187,2360.89 585.529,2257.56 523.207,2247.4C448.059,2235.15 452.317,2357.89 364.581,2345.98C286.946,2335.43 367.692,2264.37 339.582,2247.4C298.638,2222.68 237.569,2320.18 171.957,2278.65C121.503,2246.71 247.791,2177.18 284.002,2122.18L284.001,2122.18C529.878,1748.72 105.484,1284.12 212.647,875.814C315.152,485.254 810.883,269.911 1283.3,559.803C1321.17,583.043 1361.34,529.059 1398.03,559.803C1412.99,572.34 1422.3,598.004 1427.71,626.667C1462.14,645.096 1485.62,681.645 1485.62,723.682C1485.62,770.548 1456.44,810.591 1415.43,826.311Z" style="fill:none;stroke:white;stroke-width:9.38px;"/>
            <g>
                <g id="left">
                    <ellipse cx="1376.86" cy="723.682" rx="108.758" ry="109.742" style="fill:white;"/>
                    <ellipse cx="1395.21" cy="748.578" rx="40.047" ry="40.409"/>
                    <path d="M1395.21,708.169C1417.31,708.169 1435.26,726.276 1435.26,748.578C1435.26,770.881 1417.31,788.988 1395.21,788.988C1373.11,788.988 1355.16,770.881 1355.16,748.578C1355.16,726.276 1373.11,708.169 1395.21,708.169ZM1395.21,712.312C1375.38,712.312 1359.31,728.573 1359.31,748.578C1359.31,768.584 1375.38,784.845 1395.21,784.845C1415.04,784.845 1431.12,768.584 1431.12,748.578C1431.12,728.573 1415.04,712.312 1395.21,712.312Z"/>
                    <ellipse cx="1382.43" cy="723.682" rx="6.402" ry="6.46" style="fill:white;"/>
                </g>
                <g id="right">
                    <circle cx="1058.07" cy="723.682" r="130.89" style="fill:white;"/>
                    <circle cx="1080.15" cy="753.376" r="48.197"/>
                    <path d="M1080.15,705.179C1106.75,705.179 1128.35,726.776 1128.35,753.376C1128.35,779.977 1106.75,801.573 1080.15,801.573C1053.55,801.573 1031.95,779.977 1031.95,753.376C1031.95,726.776 1053.55,705.179 1080.15,705.179ZM1080.15,709.322C1055.84,709.322 1036.1,729.062 1036.1,753.376C1036.1,777.69 1055.84,797.43 1080.15,797.43C1104.46,797.43 1124.2,777.69 1124.2,753.376C1124.2,729.062 1104.46,709.322 1080.15,709.322Z"/>
                    <circle cx="1064.82" cy="723.682" r="7.704" style="fill:white;"/>
                </g>
            </g>
        </g>
    </g>
</svg>
