<?xml version="1.0" encoding="UTF-8" standalone="no"?><!DOCTYPE svg PUBLIC "-//W3C//DTD SVG 1.1//EN" "http://www.w3.org/Graphics/SVG/1.1/DTD/svg11.dtd"><svg width="100%" height="100%" viewBox="0 0 4267 4267" version="1.1" xmlns="http://www.w3.org/2000/svg" xmlns:xlink="http://www.w3.org/1999/xlink" xml:space="preserve" xmlns:serif="http://www.serif.com/" style="fill-rule:evenodd;clip-rule:evenodd;stroke-linejoin:round;stroke-miterlimit:2;"><path d="M367.819,3141.34c327.836,-497.943 -238.023,-1117.41 -95.139,-1661.82c136.673,-520.747 797.648,-807.871 1427.54,-421.348c50.495,30.986 104.05,-40.992 152.969,0c49.308,41.318 52.611,189.592 44.967,240.828c-22.614,151.578 -46.25,185.434 -44.967,185.783c343.593,93.412 223.112,408.401 44.967,453.162c-46.178,11.603 -306.092,54.94 -598.362,3.033c-231.243,-41.068 -284.844,-11.854 -246.677,10.999c522.109,312.613 1552.75,25.903 2151.31,68.698c1147.59,82.047 978.619,1058.85 977.195,1120.66c-0.012,0.51 0.502,-0 0.502,-0c-6.145,187.217 -69.913,290.837 -148.663,378.867c-279.648,312.604 -841.784,206.385 -1497.58,175.461c-1131.14,-53.339 -1698.41,-35.448 -2043.96,-16.96c-229.248,12.266 -417.076,24.826 -404.125,16.96c212.993,-129.366 417.785,-208.429 657.292,-241.434c125.839,-17.341 261.262,-21.967 412.493,-14.494c2308.87,114.089 2602.34,129.9 2513.41,-298.4l1.088,-0c-49.444,-235.068 -272.582,-251.439 -308.687,-198.026c-151.873,224.674 155.182,384.157 48.301,434.348c-83.404,39.165 -122.233,-89.112 -190.598,-65.19c-38.871,13.602 42.845,123.69 -35.024,137.596c-88.393,15.784 -63.569,-104.901 -157.112,-108.429c-102.928,-3.882 -64.507,122.721 -152.506,108.429c-82.299,-13.367 -8.22,-96.294 -66.666,-133.429c-66.5,-42.252 -115.229,84.473 -172.118,66.518c-64.432,-20.336 -0.634,-142.796 68.093,-204.649c103.223,-92.9 66.594,-250.037 42.585,-234.488c-111.136,71.976 -26.686,208.456 -50.698,234.488c-76.235,82.648 -82.421,134.409 -83.101,129.798c-102.634,-30.446 26.603,100.362 -57.831,135.27c-81.698,33.777 -102.359,-88.913 -159.485,-93.604c-54.106,-4.443 -57.385,96.843 -152.659,93.604c-111.756,-3.799 30.08,-117.834 -62.5,-135.27c-40.665,-7.659 -91.28,88.4 -160.93,44.356c-44.254,-27.984 -8.395,-71.489 102.819,-174.154c74.659,-68.921 144.803,-289.592 -185.284,-280.978c-238.356,6.221 -174.567,214.69 -128.665,281.024c42.087,60.822 126.46,176.781 71.999,199.108c-108.169,44.345 -110.157,-106.243 -181.542,-103.994c-103.013,3.245 -3.898,155.905 -99.263,166.072c-106.873,11.394 -91.84,-164.853 -144.881,-166.072c-75.003,-1.724 -121.192,143.654 -210.695,142.822c-141.33,-1.313 34.628,-144.433 -44.17,-153.132c-45.067,-4.975 -149.305,128.188 -209.964,86.614c-50.171,-34.385 -29.44,-59.24 58.689,-171.418c49.051,-62.435 77.509,-286.011 2.268,-235.24c-132.152,89.173 0.956,231.571 -2.268,235.24c-38.697,44.059 -51.899,69.535 -67.04,84.804c-4.558,4.596 -43.027,-13.541 -79.111,-0c-66.593,24.99 41.717,129.274 -29.166,153.132c-128.136,43.129 -105.013,-94.635 -188.109,-108.184c-100.198,-16.338 -94.52,147.324 -211.501,131.434c-103.514,-14.061 4.147,-108.803 -33.333,-131.434c-54.591,-32.963 -136.017,97.045 -223.499,41.666c-67.273,-42.586 101.112,-135.3 149.393,-208.632Z" style="fill:#070000;"/><path d="M1308.45,1110.19c148.092,33.744 237.63,196.236 227.45,242.344c-10.18,46.105 -170.716,179.842 -318.808,146.094c-148.094,-33.747 -228.02,-222.278 -217.84,-268.386c10.18,-46.105 161.107,-153.8 309.198,-120.052Z" style="fill:url(#_Radial1);"/><path d="M1297.25,1163.23c107.542,24.505 172.564,142.504 165.171,175.987c-7.392,33.481 -123.972,130.6 -231.514,106.092c-107.544,-24.507 -165.585,-161.415 -158.193,-194.899c7.393,-33.48 116.994,-111.687 224.536,-87.18Z" style="stroke:#fff;stroke-width:12.5px;"/><path d="M1876.07,1119.01c16.127,73.239 17.714,163.843 -3.101,272.043c-5.957,30.964 -14.455,62.439 -25.171,93.735c-90.667,-33.473 -162.631,-101.881 -169.338,-132.255c-9.476,-42.922 67.461,-186.699 197.61,-233.523Z" style="fill:url(#_Radial2);"/><path d="M1882.97,1158.55c3.845,17.462 8.323,91.322 5.416,128.728c-4.31,55.461 -24.772,141.116 -28.56,152.179c-53.671,-19.814 -134.721,-89.606 -138.691,-107.586c-3.937,-17.834 39.429,-82.369 92.275,-128.843c22.443,-19.736 46.595,-36.216 69.56,-44.478Z" style="stroke:#fff;stroke-width:12.5px;"/><path d="M1161.72,2007.27c167.276,71.714 353.852,93.887 558.241,92.519c-40.795,92.709 -187.611,192.2 -366.262,145.983c-208.202,-53.862 -210.151,-171.764 -191.979,-238.502Z" style="fill:#ffd900;"/><path d="M316.135,1356.57c70.907,43.797 114.188,144.465 102.461,255.706c-12.617,119.679 -84.908,213.698 -171.506,233.224c-14.527,-105.491 -10.441,-226.664 25.59,-365.97c11.027,-42.636 25.588,-83.703 43.455,-122.96Z" style="fill:#ffd900;"/><path d="M1118.02,879.668c-26.685,-0.411 -53.085,0.254 -79.154,2.001c26.03,-2.124 52.418,-3.102 79.096,-3.024l0.058,1.023Z" style="fill:#ffd900;"/><path d="M1038.87,881.669c26.062,-1.709 52.459,-2.381 79.154,-2.001c10.37,95.951 -67.905,197.647 -188.549,237.385c-131.66,43.366 -265.074,-3.099 -300.896,-103.849c117.788,-73.61 258.174,-120.002 410.291,-131.535Z" style="fill:#ffd900;"/><path d="M4099.65,2536.06c109.682,247.994 89.691,508.104 83.401,585.333c-10.647,4.318 -21.81,7.207 -33.383,8.628c-109.082,13.396 -213.457,-108.631 -232.935,-272.33c-19.477,-163.7 53.271,-307.479 162.354,-320.876c6.884,-0.845 13.749,-1.151 20.563,-0.755Z" style="fill:#ffd900;"/><path d="M2443.79,2054.23c0.606,11.988 -0.149,24.088 -2.168,36.197c-20.774,124.567 -167.557,203.338 -327.579,175.794c-115.939,-19.957 -207.223,-90.281 -240.417,-175.004c179.393,-3.431 373.028,-20.355 570.164,-36.987Z" style="fill:#ffd900;"/><path d="M2636.29,2038.59c192.526,-14.63 385.17,-24.783 568.134,-17.907l15.866,0.823c-13.321,108.055 -122.907,201.568 -265.264,218.437c-161.209,19.104 -303.788,-67.27 -318.196,-192.762l-0.54,-8.591Z" style="fill:#ffd900;"/><path d="M3391.46,2038.2c221.513,34.132 382.265,112.246 498.606,212.092c-72.37,58.809 -191.342,70.626 -303.831,22.008c-111.079,-48.008 -184.753,-141.512 -194.775,-234.1Z" style="fill:#ffd900;"/><path d="M2637.67,3695.99c52.366,-64.782 145.425,-107.496 251.081,-106.635c120.197,0.979 223.204,58.081 268.154,138.969c-161.783,-7 -336.303,-21.55 -519.235,-32.334Zm884.738,28.479c13.541,-90.486 87.026,-180.43 195.987,-226.603c110.818,-46.96 227.485,-35.571 300.073,20.746c-119.565,130.922 -289.728,187.006 -496.06,205.857Zm-1720.87,-60.519c52.046,-65.963 145.969,-109.609 252.76,-108.739c113.414,0.924 211.522,51.815 259.994,125.501c-178.176,-7.248 -349.304,-12.737 -512.754,-16.762Zm-926.665,-8.93c44.631,-82.982 150.434,-140.871 273.26,-139.87c121.545,0.991 225.511,59.369 269.642,141.695c-194.154,-2.394 -375.388,-2.789 -542.902,-1.825Z" style="fill:#ffd700;stroke:#fff;stroke-width:12.5px;"/><path d="M367.819,3141.34c327.836,-497.943 -238.023,-1117.41 -95.139,-1661.82c136.673,-520.747 797.648,-807.871 1427.54,-421.348c50.495,30.986 104.05,-40.992 152.969,0c49.308,41.318 52.611,189.592 44.967,240.828c-22.614,151.578 -46.25,185.434 -44.967,185.783c343.593,93.412 223.112,408.401 44.967,453.162c-46.178,11.603 -306.092,54.94 -598.362,3.033c-231.243,-41.068 -284.844,-11.854 -246.677,10.999c522.109,312.613 1552.75,25.903 2151.31,68.698c1147.59,82.047 978.619,1058.85 977.195,1120.66c-0.012,0.51 0.502,-0 0.502,-0c-6.145,187.217 -69.913,290.837 -148.663,378.867c-279.648,312.604 -841.784,206.385 -1497.58,175.461c-1131.14,-53.339 -1698.41,-35.448 -2043.96,-16.96c-229.248,12.266 -417.076,24.826 -404.125,16.96c212.993,-129.366 417.785,-208.429 657.292,-241.434c125.839,-17.341 261.262,-21.967 412.493,-14.494c2308.87,114.089 2602.34,129.9 2513.41,-298.4l1.088,-0c-49.444,-235.068 -272.582,-251.439 -308.687,-198.026c-151.873,224.674 155.182,384.157 48.301,434.348c-83.404,39.165 -122.233,-89.112 -190.598,-65.19c-38.871,13.602 42.845,123.69 -35.024,137.596c-88.393,15.784 -63.569,-104.901 -157.112,-108.429c-102.928,-3.882 -64.507,122.721 -152.506,108.429c-82.299,-13.367 -8.22,-96.294 -66.666,-133.429c-66.5,-42.252 -115.229,84.473 -172.118,66.518c-64.432,-20.336 -0.634,-142.796 68.093,-204.649c103.223,-92.9 66.594,-250.037 42.585,-234.488c-111.136,71.976 -26.686,208.456 -50.698,234.488c-76.235,82.648 -82.421,134.409 -83.101,129.798c-102.634,-30.446 26.603,100.362 -57.831,135.27c-81.698,33.777 -102.359,-88.913 -159.485,-93.604c-54.106,-4.443 -57.385,96.843 -152.659,93.604c-111.756,-3.799 30.08,-117.834 -62.5,-135.27c-40.665,-7.659 -91.28,88.4 -160.93,44.356c-44.254,-27.984 -8.395,-71.489 102.819,-174.154c74.659,-68.921 144.803,-289.592 -185.284,-280.978c-238.356,6.221 -174.567,214.69 -128.665,281.024c42.087,60.822 126.46,176.781 71.999,199.108c-108.169,44.345 -110.157,-106.243 -181.542,-103.994c-103.013,3.245 -3.898,155.905 -99.263,166.072c-106.873,11.394 -91.84,-164.853 -144.881,-166.072c-75.003,-1.724 -121.192,143.654 -210.695,142.822c-141.33,-1.313 34.628,-144.433 -44.17,-153.132c-45.067,-4.975 -149.305,128.188 -209.964,86.614c-50.171,-34.385 -29.44,-59.24 58.689,-171.418c49.051,-62.435 77.509,-286.011 2.268,-235.24c-132.152,89.173 0.956,231.571 -2.268,235.24c-38.697,44.059 -51.899,69.535 -67.04,84.804c-4.558,4.596 -43.027,-13.541 -79.111,-0c-66.593,24.99 41.717,129.274 -29.166,153.132c-128.136,43.129 -105.013,-94.635 -188.109,-108.184c-100.198,-16.338 -94.52,147.324 -211.501,131.434c-103.514,-14.061 4.147,-108.803 -33.333,-131.434c-54.591,-32.963 -136.017,97.045 -223.499,41.666c-67.273,-42.586 101.112,-135.3 149.393,-208.632Z" style="fill:none;stroke:#fff;stroke-width:12.5px;"/><path d="M3235.06,1590.39c1188.52,-495.42 1070.5,274.883 -407.357,172.191c-325.831,-22.641 -896.384,-44.668 -896.485,-44.348c-16.733,52.905 -44.415,91.285 -42.769,92.255c78.982,46.557 2241.71,82.445 2245.6,-92.255c21.595,-969.863 -943.662,-109.221 -898.986,-127.843Z" style="fill:#dc0408;stroke:#ff7171;stroke-width:12.5px;"/><defs><radialGradient id="_Radial1" cx="0" cy="0" r="1" gradientUnits="userSpaceOnUse" gradientTransform="matrix(310.316,0,0,315.265,1426.81,902.362)"><stop offset="0" style="stop-color:#000;stop-opacity:1"/><stop offset="1" style="stop-color:#4d4d4d;stop-opacity:1"/></radialGradient><radialGradient id="_Radial2" cx="0" cy="0" r="1" gradientUnits="userSpaceOnUse" gradientTransform="matrix(-121.911,-2.29282,2.25682,-123.855,2073.53,900.069)"><stop offset="0" style="stop-color:#000;stop-opacity:1"/><stop offset="1" style="stop-color:#4d4d4d;stop-opacity:1"/></radialGradient></defs></svg>