<?xml version="1.0" encoding="UTF-8" standalone="no"?><!DOCTYPE svg PUBLIC "-//W3C//DTD SVG 1.1//EN" "http://www.w3.org/Graphics/SVG/1.1/DTD/svg11.dtd"><svg width="100%" height="100%" viewBox="0 0 1024 1024" version="1.1" xmlns="http://www.w3.org/2000/svg" xmlns:xlink="http://www.w3.org/1999/xlink" xml:space="preserve" xmlns:serif="http://www.serif.com/" style="fill-rule:evenodd;clip-rule:evenodd;stroke-linejoin:round;stroke-miterlimit:2;"><path d="M398.787,607.095c-89.985,-121.221 -173.713,-254.026 -87.773,-431.268c87.664,-180.798 301.695,-215.762 471.729,-38.697c23.882,24.87 34.845,55.855 36.505,88.358c-39.228,10.886 -67.142,28.253 -64.288,40.978c2.461,10.972 27.084,15.294 59.541,11.833c-15.89,72.204 -66.494,143.13 -115.742,154.379c-93.951,21.459 -182.092,-51.271 -162.937,-24.672c28.219,39.184 53.023,80.005 99.022,152.432c108.484,-47.877 109.352,-139.956 113.591,-133.217c0.643,1.023 1.276,2.044 1.898,3.062c60.273,98.706 18.65,174.115 -61.392,223.391c21.011,50.47 23.402,97.571 14.366,140.087c43.142,0.365 65.43,9.524 65.43,9.524c-63.44,15.274 -78.824,50.513 -96.182,68.193c-65.297,111.597 -195.336,170.698 -173.529,139.947c27.628,-38.958 40.884,-75.879 43.627,-111.543c-30.268,4.014 -62.465,0.854 -96.795,-25.172c-1.824,-1.384 62.043,-9.352 93.126,-29.367c-8.891,-43.171 -31.063,-84.999 -58.995,-126.999c-182.085,16.779 -341.558,-69.935 -184.964,-275.665c17.345,-22.788 -35.623,132.901 62.656,158.718c12.737,3.346 26.752,5.079 41.106,5.698Zm408.57,-389.764c-2.891,-26.642 -12.921,-51.843 -32.698,-72.438c-82.131,-85.526 -174.663,-120.364 -257.472,-111.469c-82.085,8.817 -154.115,60.728 -196.088,147.293c-83.684,172.589 -0.936,301.659 86.687,419.697c2.576,3.471 2.928,8.113 0.902,11.932c-2.025,3.818 -6.065,6.132 -10.383,5.946c-15.182,-0.654 -30,-2.516 -43.472,-6.055c-39.079,-10.265 -57.368,-38.366 -65.141,-69.761c-5.656,-22.847 -5.511,-47.444 -4.31,-66.984c-43.141,64.994 -51.54,115.692 -35.066,153.446c10.799,24.749 32.268,43.327 60.252,56.412c44.464,20.792 105.028,27.672 168.393,21.833c4.101,-0.378 8.08,1.524 10.361,4.954c28.783,43.282 51.478,86.458 60.639,130.945c0.934,4.535 -1.017,9.177 -4.909,11.684c-17.365,11.181 -48.021,19.79 -69.805,24.892c23.039,10.932 44.993,11.89 65.933,9.113c3.351,-0.444 6.723,0.647 9.177,2.971c2.455,2.323 3.731,5.63 3.471,9c-2.495,32.437 -13.165,65.908 -34.84,100.872c2.391,-1.155 4.917,-2.454 7.563,-3.885c37.806,-20.441 98.361,-67.019 136.33,-131.911c0.467,-0.797 1.03,-1.533 1.676,-2.192c14.072,-14.332 27.124,-39.33 62.911,-57.397c-7.088,-0.702 -15.179,-1.184 -24.255,-1.26c-3.365,-0.029 -6.539,-1.567 -8.645,-4.191c-2.107,-2.624 -2.923,-6.055 -2.224,-9.347c8.608,-40.504 6.266,-85.369 -13.75,-133.45c-2.118,-5.088 -0.222,-10.962 4.472,-13.851c44.899,-27.642 77.427,-63.65 83.646,-108.31c3.428,-24.612 -1.223,-51.67 -15.737,-81.176c-11.384,30.492 -40.775,84.789 -111.605,116.048c-5.071,2.238 -11.015,0.433 -13.987,-4.245c-45.833,-72.167 -70.538,-112.848 -98.656,-151.891c-3.135,-4.354 -4.279,-7.609 -4.581,-9.455c-0.776,-4.739 0.858,-7.997 3.016,-10.328c1.986,-2.145 6.567,-5.251 14.189,-3.166c6.447,1.765 22.032,9.801 43.294,17.776c29.531,11.076 70.928,22.119 113.618,12.368c17.769,-4.059 35.517,-17.053 51.595,-34.966c22.54,-25.112 41.55,-59.96 51.973,-96.247c-18.196,0.532 -33.016,-1.69 -41.872,-5.902c-8.129,-3.865 -12.552,-9.553 -13.935,-15.717c-1.526,-6.805 0.634,-14.84 8.044,-22.599c9.506,-9.954 29.585,-20.856 55.289,-28.989Z" style="fill:#dc9f04;"/><path d="M906.285,425.372c-130.288,-18.922 -163.84,-64.549 -163.93,-64.366c-8.002,16.252 -21.24,28.042 -20.453,28.34c37.771,14.302 156.319,94.314 155.42,93.439l-63.987,-62.906c0,-0 121.716,9.671 92.95,5.493Z" style="fill:#dc9f04;"/><path d="M611.32,222.02c46.218,10.366 81.162,30.282 77.985,44.446c-3.177,14.163 -43.279,17.246 -89.497,6.879c-46.219,-10.367 -81.163,-30.282 -77.986,-44.446c3.177,-14.163 43.28,-17.246 89.498,-6.879Z" style="fill:#dc9f04;"/><path d="M613.839,210.789c-34.877,-7.823 -66.54,-8.042 -83.564,-2.532c-11.741,3.801 -18.03,10.752 -19.684,18.123c-1.653,7.372 1.064,16.343 10.058,24.794c13.039,12.253 41.762,25.579 76.639,33.402c34.878,7.823 66.541,8.042 83.564,2.532c11.742,-3.801 18.031,-10.752 19.684,-18.123c1.654,-7.372 -1.064,-16.343 -10.057,-24.794c-13.04,-12.253 -41.763,-25.579 -76.64,-33.402Zm-2.519,11.231c46.218,10.366 81.162,30.282 77.985,44.446c-3.177,14.163 -43.279,17.246 -89.497,6.879c-46.219,-10.367 -81.163,-30.282 -77.986,-44.446c3.177,-14.163 43.28,-17.246 89.498,-6.879Z" style="fill:#dc9f04;"/><path d="M819.248,225.488c0.896,17.399 -0.868,35.234 -4.747,52.811c-32.457,3.461 -57.08,-0.861 -59.541,-11.833c-2.854,-12.725 25.06,-30.092 64.288,-40.978Z" style="fill:#dc9f04;"/></svg>