<?xml version="1.0" encoding="UTF-8" standalone="no"?><!DOCTYPE svg PUBLIC "-//W3C//DTD SVG 1.1//EN" "http://www.w3.org/Graphics/SVG/1.1/DTD/svg11.dtd"><svg width="100%" height="100%" viewBox="0 0 4267 4267" version="1.1" xmlns="http://www.w3.org/2000/svg" xmlns:xlink="http://www.w3.org/1999/xlink" xml:space="preserve" xmlns:serif="http://www.serif.com/" style="fill-rule:evenodd;clip-rule:evenodd;stroke-linejoin:round;stroke-miterlimit:2;"><path d="M3866.92,2474.41c37.263,111.211 53.599,248.187 50.469,419.009l-68.786,-0c-59.606,-27.097 -107.668,-94.884 -119.952,-179.425c-17.261,-118.804 42.63,-225.996 133.66,-239.222l4.609,-0.362Z" style="fill:#ffcb00;"/><path d="M1272.94,1100.69c126.294,28.325 202.653,164.725 193.971,203.429c-8.681,38.701 -145.588,150.964 -271.882,122.635c-126.297,-28.329 -194.459,-186.586 -185.777,-225.29c8.681,-38.701 137.394,-129.103 263.688,-100.774Z" style="fill:url(#_Radial1);"/><path d="M1263.39,1145.21c91.713,20.57 147.164,119.621 140.86,147.728c-6.305,28.104 -105.725,109.628 -197.439,89.056c-91.715,-20.572 -141.213,-135.496 -134.908,-163.603c6.304,-28.104 99.773,-93.753 191.487,-73.181Z" style="fill:#ffcb00;stroke:#fff;stroke-width:12.5px;"/><path d="M1757.01,1108.1c13.753,61.478 15.107,137.534 -2.645,228.359c-5.08,25.993 -12.327,52.413 -21.466,78.684c-77.322,-28.098 -138.694,-85.522 -144.413,-111.018c-8.082,-36.03 57.531,-156.72 168.524,-196.025Z" style="fill:url(#_Radial2);"/><path d="M1762.89,1141.29c3.279,14.658 7.098,76.657 4.619,108.057c-3.676,46.555 -21.126,118.456 -24.356,127.743c-45.772,-16.633 -114.892,-75.218 -118.277,-90.311c-3.358,-14.97 33.625,-69.142 78.693,-108.153c19.139,-16.568 39.736,-30.401 59.321,-37.336Z" style="fill:#ffcb00;stroke:#fff;stroke-width:12.5px;"/><path d="M870.879,2446.19c3.665,-7.95 8.382,-15.432 13.926,-22.469c56.924,-72.257 179.702,-70.604 274.005,3.688c88.286,69.553 124.683,161.606 81.702,234.485c-108.024,-80.308 -131.223,-87.682 -231.998,-142.139c-45.092,-24.367 -91.407,-48.49 -137.635,-73.565Z" style="fill:#ffcb00;"/><path d="M399.299,2003.8c62.983,-46.277 166.622,-36.639 248.694,28.018c94.303,74.292 124.65,193.271 67.725,265.528c-10.565,13.411 -23.398,24.276 -37.917,32.579c-117.485,-81.817 -219.524,-182.703 -278.502,-326.125Z" style="fill:#ffcb00;"/><path d="M421.322,1292.26c80.228,21.961 133.699,119.755 121.903,229.897c-12.785,119.369 -97.421,208.329 -188.884,198.533l-8.982,-1.566c-1.065,-90.499 10.044,-192.546 35.926,-308.397c9.243,-41.369 22.725,-80.939 40.037,-118.467Z" style="fill:#ffcb00;"/><path d="M1085.49,906.331c9.362,80.802 -57.499,166.651 -160.747,200.125c-112.281,36.403 -226.059,-2.601 -256.608,-87.173c117.652,-72.37 261.741,-113.399 417.355,-112.952Z" style="fill:#ffcb00;"/><path d="M1827.06,2063.79c16.18,23.217 25.3,49.736 25.3,77.875c0,91.986 -97.467,166.666 -217.518,166.666c-120.052,0 -217.519,-74.68 -217.519,-166.666c0,-19.152 4.225,-37.553 12.2,-54.587c158.91,3.435 286.938,-6.61 397.537,-23.288Z" style="fill:#ffcb00;"/><path d="M2481.28,1929.06c5.644,14.544 8.578,29.982 8.578,45.942c0,91.986 -97.467,166.667 -217.518,166.667c-101.66,-0 -187.125,-53.552 -210.675,-125.888c140.058,-34.607 263.85,-71.898 419.615,-86.721Z" style="fill:#ffcb00;"/><path d="M2682.44,1923.02c116.748,3.677 253.076,19.827 420.477,54.21l3.411,0.724c-1.893,90.623 -98.556,163.715 -217.324,163.715c-120.051,-0 -217.518,-74.681 -217.518,-166.667c-0,-18.167 3.802,-35.659 10.954,-51.982Z" style="fill:#ffcb00;"/><path d="M3312.22,2027.32c160.293,45.275 286.929,101.806 381.921,183.785c-52.115,61.183 -158.933,72.253 -253.829,22.116c-88.358,-46.682 -138.706,-131.806 -128.092,-205.901Z" style="fill:#ffcb00;"/><path d="M2783.7,3301.4c38.734,-47.166 107.568,-78.265 185.719,-77.638c88.908,0.713 165.099,42.287 198.348,101.179c-119.668,-5.096 -248.756,-15.69 -384.067,-23.541Zm654.422,20.735c10.016,-65.881 64.371,-131.366 144.967,-164.983c81.97,-34.189 168.266,-25.898 221.958,15.105c-88.44,95.32 -214.306,136.153 -366.925,149.878Zm-1272.89,-44.063c38.497,-48.025 107.97,-79.803 186.961,-79.169c83.89,0.673 156.458,37.725 192.312,91.373c-131.793,-5.277 -258.373,-9.273 -379.273,-12.204Zm-1314.21,6.363c20.776,-75.889 109.067,-132.491 214.229,-131.647c98.56,0.79 181.493,51.795 207.619,120.942c-164.463,2.508 -305.816,6.573 -421.848,10.705Zm628.771,-12.865c33.012,-60.416 111.273,-102.562 202.125,-101.834c89.904,0.722 166.805,43.225 199.448,103.163c-143.612,-1.742 -277.667,-2.03 -401.573,-1.329Z" style="fill:#ffd700;"/><path d="M3789.43,1537.16c-940.826,242.139 -1990.27,106.779 -1990.51,107.279c-21.866,44.409 -58.04,76.626 -55.89,77.441c103.212,39.081 2048.86,92.609 2046.4,90.218l-743.765,-90.218c-0,-0 815.72,-203.239 743.765,-184.72Z" style="fill:#fc0;"/><path d="M3540.49,2893.42c-36.572,-171.145 -122.681,-171.826 -203.329,-144.176c-52.952,18.154 -16.081,222.115 18.918,368.313c-78.216,10.67 -184.411,13.512 -325.784,10.681c0.046,-156.113 -13.232,-390.053 -93.903,-378.48c-50.435,7.235 -107.035,221.257 -121.942,371.284c-88.38,-3.814 -186.574,-8.826 -295.51,-14.758c30.484,-142.227 52.535,-332.978 -40.902,-357.04c-258.502,-66.571 -245.328,168.715 -201.196,343.49c-98.834,-5.624 -204.857,-11.706 -318.519,-18.107c-13.441,-141.927 -40.258,-313.804 -91.659,-324.869c-49.046,-10.558 -126.265,35.192 -151.444,311.385c-25.745,-1.402 -51.861,-2.816 -78.325,-4.238c-80.43,-4.323 -154.269,-6.539 -222.32,-6.859c2.224,-89.635 -3.194,-180.982 -22.341,-230.28c-39.931,-102.809 -144.636,-170.805 -383.723,-300.003c-357.588,-193.233 -792.084,-371.132 -627.229,-1109.04c98.637,-441.503 680.245,-678.146 1217.42,-353.689c43.063,26.01 88.735,-34.41 130.455,-0c42.05,34.683 44.867,159.147 38.348,202.156c-19.286,127.238 -39.443,155.658 -38.348,155.951c293.02,78.412 173.965,357.192 38.348,382.941c-650.415,123.489 -1044.89,-271.963 -933.16,-0c1.151,2.801 51.368,251.79 403.698,279.416c963.541,75.551 941.023,-290.024 1864.87,-100.271c575.121,118.127 825.967,289.087 814.477,916.188" style="fill:none;stroke:#ffcd00;stroke-width:33.33px;stroke-linecap:square;stroke-linejoin:miter;"/><path d="M3917.76,2893.42c-4.546,136.307 -51.714,211.749 -109.963,275.84c-206.85,227.597 -622.65,150.262 -1107.73,127.748c-1391.76,-64.599 -2248.99,14.3 -2224.94,-0c248.137,-147.52 438.48,-278.973 1161.77,-240.103c1707.36,91.755 1968.57,148.346 1902.79,-163.485" style="fill:none;stroke:#fc0;stroke-width:33.33px;stroke-linecap:square;stroke-linejoin:miter;"/><defs><radialGradient id="_Radial1" cx="0" cy="0" r="1" gradientUnits="userSpaceOnUse" gradientTransform="matrix(229.534,0,0,229.534,1238.05,1263.29)"><stop offset="0" style="stop-color:#fc0;stop-opacity:1"/><stop offset="1" style="stop-color:#fff;stop-opacity:1"/></radialGradient><radialGradient id="_Radial2" cx="0" cy="0" r="1" gradientUnits="userSpaceOnUse" gradientTransform="matrix(-90.175,-1.66933,1.66933,-90.175,1716.41,1261.62)"><stop offset="0" style="stop-color:#fc0;stop-opacity:1"/><stop offset="1" style="stop-color:#fff;stop-opacity:1"/></radialGradient></defs></svg>