<?xml version="1.0" encoding="UTF-8" standalone="no"?><!DOCTYPE svg PUBLIC "-//W3C//DTD SVG 1.1//EN" "http://www.w3.org/Graphics/SVG/1.1/DTD/svg11.dtd"><svg width="100%" height="100%" viewBox="0 0 1024 1024" version="1.1" xmlns="http://www.w3.org/2000/svg" xmlns:xlink="http://www.w3.org/1999/xlink" xml:space="preserve" xmlns:serif="http://www.serif.com/" style="fill-rule:evenodd;clip-rule:evenodd;stroke-linecap:round;stroke-linejoin:round;stroke-miterlimit:1.5;"><g><path d="M332.263,656.858c-110.184,-117.412 -220.663,-253.625 -116.145,-469.183c100.357,-206.975 345.378,-247.002 540.033,-44.299c27.34,28.471 39.89,63.942 41.79,101.152c-44.907,12.461 -76.863,32.343 -73.596,46.91c2.818,12.562 31.005,17.51 68.162,13.547c-18.191,82.659 -76.122,163.854 -132.501,176.732c-107.554,24.566 -208.457,-58.694 -186.529,-28.244c29.342,40.744 56.844,56.141 96.17,104.84c165.691,-22.178 252.294,13.408 252.294,13.408c-102.73,24.735 -147.375,73.6 -179.073,112.746c67.811,219.165 -222.27,365.347 -191.151,321.465c66.746,-94.121 36.127,-169.559 -24.805,-245.139c-92.367,23.64 -193.697,50.601 -305.446,-34.118c-4.139,-3.138 147.536,-21.895 210.797,-69.817Z" style="fill:none;stroke:#db9d00;stroke-width:11.21px;"/><path d="M559.906,240.557c52.911,11.868 92.914,34.667 89.278,50.881c-3.637,16.215 -49.547,19.744 -102.457,7.876c-52.91,-11.868 -92.914,-34.667 -89.277,-50.881c3.637,-16.215 49.546,-19.744 102.456,-7.876Z" style="fill:none;stroke:#db9d00;stroke-width:11.21px;"/></g><path d="M897.581,473.354c-149.153,-21.662 -187.564,-73.896 -187.667,-73.687c-9.161,18.605 -24.315,32.103 -23.413,32.444c43.239,16.372 178.952,107.97 177.922,106.969l-73.251,-72.015c0,-0 139.339,11.071 106.409,6.289Z" style="fill:#db9d00;stroke:#db9d00;stroke-width:1px;"/><path d="M559.906,240.557c52.911,11.868 92.914,34.667 89.278,50.881c-3.637,16.215 -49.547,19.744 -102.457,7.876c-52.91,-11.868 -92.914,-34.667 -89.277,-50.881c3.637,-16.215 49.546,-19.744 102.456,-7.876Z" style="fill:#db9d00;"/><path d="M797.941,244.528c1.026,19.917 -0.993,40.335 -5.434,60.457c-37.157,3.963 -65.344,-0.985 -68.162,-13.547c-3.267,-14.567 28.689,-34.449 73.596,-46.91Z" style="fill:#db9d00;"/></svg>