<?xml version="1.0" encoding="UTF-8" standalone="no"?><!DOCTYPE svg PUBLIC "-//W3C//DTD SVG 1.1//EN" "http://www.w3.org/Graphics/SVG/1.1/DTD/svg11.dtd"><svg width="100%" height="100%" viewBox="0 0 4267 4267" version="1.1" xmlns="http://www.w3.org/2000/svg" xmlns:xlink="http://www.w3.org/1999/xlink" xml:space="preserve" xmlns:serif="http://www.serif.com/" style="fill-rule:evenodd;clip-rule:evenodd;stroke-linejoin:round;stroke-miterlimit:2;"><g><path d="M527.472,2218.63c-202.868,-496.36 -167.438,-767.622 -127.359,-922.575c114.838,-443.997 679.455,-688.164 1216.01,-358.914c43.013,26.394 88.632,-34.919 130.303,-0c42.002,35.195 44.816,161.498 38.304,205.142c-19.263,129.118 -39.397,157.957 -38.304,158.255c292.681,79.57 190.052,347.885 38.304,386.013c-39.336,9.884 -260.736,46.8 -509.699,2.584c-196.978,-34.983 -220.141,-27.178 -210.124,9.369c107.244,391.291 1301.72,125.158 2133.62,147.12c1150.12,30.362 977.698,1120.66 977.698,1120.66c-6.145,187.217 -69.914,290.837 -148.663,378.867c-279.649,312.604 -841.785,206.385 -1497.58,175.461c-1131.14,-53.339 -1698.41,-35.448 -2043.96,-16.96c-229.248,12.266 -417.077,24.826 -404.126,16.96c212.993,-129.366 417.785,-208.429 657.293,-241.434c125.839,-17.341 261.262,-21.967 412.493,-14.494c2308.87,114.089 2811.44,152.799 2651.99,-537.188c-127.448,-551.507 -701.517,-412.247 -398.34,-269.159c123.114,58.105 -116.046,294.682 -154.334,432.947c-28.615,103.329 269.131,272.459 225.622,311.322c-68.72,61.381 -122.233,-89.112 -190.598,-65.19c-38.871,13.602 42.845,123.69 -35.024,137.596c-88.393,15.784 -63.569,-104.901 -157.112,-108.429c-102.928,-3.882 -64.507,122.721 -152.506,108.429c-82.299,-13.367 -8.22,-96.294 -66.666,-133.429c-66.5,-42.252 -115.574,85.53 -172.118,66.518c-85.265,-28.67 39.818,-190.106 68.093,-204.649c554.231,-285.073 195.196,-663.937 0,-416.008c-239.489,304.189 15.899,389.976 -8.113,416.008c-76.235,82.648 -90.754,134.409 -91.435,129.798c-102.633,-30.446 34.937,100.362 -49.497,135.27c-81.698,33.777 -102.359,-88.913 -159.485,-93.604c-54.106,-4.443 -57.385,96.843 -152.659,93.604c-111.756,-3.799 30.08,-117.834 -62.5,-135.27c-40.665,-7.659 -91.28,88.4 -160.93,44.356c-44.254,-27.984 -8.395,-71.489 102.819,-174.154c74.659,-68.922 610.308,-370.351 -0,-416.008c-970.695,-72.616 -430.684,349.72 -384.782,416.054c42.086,60.822 126.459,176.781 71.998,199.108c-108.168,44.345 -110.157,-106.243 -181.541,-103.994c-103.013,3.245 -3.898,155.905 -99.263,166.072c-106.874,11.394 -91.84,-164.853 -144.881,-166.072c-75.004,-1.724 -121.192,143.654 -210.696,142.822c-141.329,-1.313 34.629,-144.433 -44.17,-153.132c-45.067,-4.975 -149.304,128.188 -209.964,86.614c-50.171,-34.385 -29.439,-59.24 58.69,-171.418c49.05,-62.435 786.638,-277.444 -58.69,-545.161c-416.903,-132.034 -257.676,204.181 -116.628,396.118c74.74,101.705 176.434,147.772 175.318,149.043c-38.697,44.059 -51.9,69.535 -67.04,84.804c-4.558,4.596 -43.027,-13.541 -79.111,-0c-66.594,24.99 41.717,129.274 -29.167,153.132c-128.135,43.129 -105.013,-94.635 -188.109,-108.184c-100.197,-16.338 -94.519,147.324 -211.5,131.434c-103.514,-14.061 4.147,-108.803 -33.333,-131.434c-54.592,-32.963 -136.017,97.045 -223.499,41.666c-67.273,-42.586 99.113,-176.971 149.393,-208.632c193.018,-121.543 243.377,-170.896 -0,-378.84c-119.291,-101.922 -281.727,-150.106 165.553,-368.816Z" style="fill:#a10202;"/><path d="M1282.41,981.444c126.148,28.744 202.418,167.158 193.747,206.434c-8.671,39.273 -145.42,153.193 -271.568,124.446c-126.15,-28.747 -194.232,-189.341 -185.561,-228.617c8.671,-39.273 137.234,-131.011 263.382,-102.263Z" style="fill:url(#_Radial1);"/><path d="M1272.87,1026.62c91.607,20.873 146.994,121.388 140.697,149.91c-6.297,28.519 -105.603,111.247 -197.209,90.371c-91.609,-20.875 -141.05,-137.497 -134.753,-166.019c6.297,-28.52 99.658,-95.138 191.265,-74.262Z" style="stroke:#fff;stroke-width:12.5px;"/><path d="M1765.92,988.958c13.737,62.386 15.089,139.565 -2.642,231.732c-5.074,26.376 -12.313,53.187 -21.441,79.846c-77.233,-28.514 -138.533,-86.785 -144.246,-112.658c-8.072,-36.562 57.465,-159.035 168.329,-198.92Z" style="fill:url(#_Radial2);"/><path d="M1771.79,1022.64c3.276,14.874 7.09,77.789 4.614,109.653c-3.672,47.243 -21.101,120.205 -24.328,129.63c-45.718,-16.879 -114.758,-76.329 -118.14,-91.645c-3.354,-15.191 33.586,-70.163 78.602,-109.751c19.117,-16.812 39.69,-30.85 59.252,-37.887Z" style="stroke:#fff;stroke-width:12.5px;"/><path d="M1112.12,704.61c-26.684,-0.411 -53.084,0.253 -79.153,2.001c26.03,-2.124 52.418,-3.102 79.095,-3.024l0.058,1.023Z" style="fill:#ffd900;"/><path d="M1155.82,1832.22c167.276,71.714 353.851,93.887 558.24,92.519c-40.794,92.709 -187.61,192.2 -366.261,145.983c-208.202,-53.862 -210.152,-171.764 -191.979,-238.502Z" style="fill:#cb0000;"/><path d="M4093.74,2361c109.682,247.994 89.691,508.104 83.4,585.333c-10.646,4.318 -21.81,7.207 -33.382,8.628c-109.083,13.396 -213.457,-108.631 -232.935,-272.33c-19.477,-163.7 53.271,-307.479 162.354,-320.876c6.883,-0.845 13.748,-1.151 20.563,-0.755Z" style="fill:#cb0000;"/><path d="M2437.89,1879.17c0.607,11.988 -0.148,24.088 -2.167,36.197c-20.774,124.567 -167.557,203.338 -327.579,175.794c-115.94,-19.957 -207.223,-90.281 -240.417,-175.004c179.393,-3.431 373.028,-20.355 570.163,-36.987Z" style="fill:#cb0000;"/><path d="M2630.39,1863.53c192.527,-14.63 385.171,-24.783 568.134,-17.907l15.867,0.823c-13.322,108.055 -122.908,201.568 -265.264,218.437c-161.21,19.104 -303.788,-67.27 -318.196,-192.762l-0.541,-8.591Z" style="fill:#cb0000;"/><path d="M3385.56,1863.14c221.513,34.132 382.266,112.246 498.607,212.092c-72.37,58.809 -191.342,70.626 -303.832,22.008c-111.078,-48.008 -184.752,-141.512 -194.775,-234.1Z" style="fill:#cb0000;"/><path d="M438.303,1184.64c58.366,36.052 93.993,118.915 84.34,210.482c-10.385,98.513 -69.891,175.904 -141.173,191.976c-11.958,-86.833 -8.595,-186.576 21.063,-301.244c9.078,-35.096 21.063,-68.9 35.77,-101.214Z" style="fill:#cb0000;"/><path d="M1033.21,793.739c21.453,-1.407 43.182,-1.96 65.155,-1.648c8.536,78.982 -55.895,162.692 -155.202,195.402c-108.375,35.697 -218.194,-2.551 -247.68,-85.482c96.956,-60.591 212.514,-98.779 337.727,-108.272Z" style="fill:#cb0000;"/><path d="M2631.77,3520.93c52.366,-64.782 145.425,-107.496 251.08,-106.635c120.198,0.979 223.204,58.081 268.155,138.969c-161.784,-7 -336.303,-21.55 -519.235,-32.334Zm884.737,28.479c13.542,-90.486 87.027,-180.43 195.988,-226.603c110.818,-46.96 227.485,-35.571 300.073,20.746c-119.565,130.922 -289.728,187.006 -496.061,205.857Zm-1720.87,-60.519c52.046,-65.963 145.968,-109.609 252.76,-108.739c113.413,0.924 211.522,51.814 259.994,125.501c-178.176,-7.248 -349.304,-12.737 -512.754,-16.762Zm-926.666,-8.93c44.631,-82.982 150.435,-140.871 273.261,-139.87c121.545,0.991 225.511,59.369 269.642,141.695c-194.155,-2.394 -375.389,-2.789 -542.903,-1.825Z" style="fill:#cb0000;"/><path d="M527.472,2218.63c-202.868,-496.36 -167.438,-767.622 -127.359,-922.575c114.838,-443.997 679.455,-688.164 1216.01,-358.914c43.013,26.394 88.632,-34.919 130.303,-0c42.002,35.195 44.816,161.498 38.304,205.142c-19.263,129.118 -39.397,157.957 -38.304,158.255c292.681,79.57 190.052,347.885 38.304,386.013c-39.336,9.884 -260.736,46.8 -509.699,2.584c-196.978,-34.983 -220.141,-27.178 -210.124,9.369c107.244,391.291 1301.72,125.158 2133.62,147.12c1150.12,30.362 977.698,1120.66 977.698,1120.66c-6.145,187.217 -69.914,290.837 -148.663,378.867c-279.649,312.604 -841.785,206.385 -1497.58,175.461c-1131.14,-53.339 -1698.41,-35.448 -2043.96,-16.96c-229.248,12.266 -417.077,24.826 -404.126,16.96c212.993,-129.366 417.785,-208.429 657.293,-241.434c125.839,-17.341 261.262,-21.967 412.493,-14.494c2308.87,114.089 2811.44,152.799 2651.99,-537.188c-127.448,-551.507 -701.517,-412.247 -398.34,-269.159c123.114,58.105 -116.046,294.682 -154.334,432.947c-28.615,103.329 269.131,272.459 225.622,311.322c-68.72,61.381 -122.233,-89.112 -190.598,-65.19c-38.871,13.602 42.845,123.69 -35.024,137.596c-88.393,15.784 -63.569,-104.901 -157.112,-108.429c-102.928,-3.882 -64.507,122.721 -152.506,108.429c-82.299,-13.367 -8.22,-96.294 -66.666,-133.429c-66.5,-42.252 -115.574,85.53 -172.118,66.518c-85.265,-28.67 39.818,-190.106 68.093,-204.649c554.231,-285.073 195.196,-663.937 0,-416.008c-239.489,304.189 15.899,389.976 -8.113,416.008c-76.235,82.648 -90.754,134.409 -91.435,129.798c-102.633,-30.446 34.937,100.362 -49.497,135.27c-81.698,33.777 -102.359,-88.913 -159.485,-93.604c-54.106,-4.443 -57.385,96.843 -152.659,93.604c-111.756,-3.799 30.08,-117.834 -62.5,-135.27c-40.665,-7.659 -91.28,88.4 -160.93,44.356c-44.254,-27.984 -8.395,-71.489 102.819,-174.154c74.659,-68.922 610.308,-370.351 -0,-416.008c-970.695,-72.616 -430.684,349.72 -384.782,416.054c42.086,60.822 126.459,176.781 71.998,199.108c-108.168,44.345 -110.157,-106.243 -181.541,-103.994c-103.013,3.245 -3.898,155.905 -99.263,166.072c-106.874,11.394 -91.84,-164.853 -144.881,-166.072c-75.004,-1.724 -121.192,143.654 -210.696,142.822c-141.329,-1.313 34.629,-144.433 -44.17,-153.132c-45.067,-4.975 -149.304,128.188 -209.964,86.614c-50.171,-34.385 -29.439,-59.24 58.69,-171.418c49.05,-62.435 786.638,-277.444 -58.69,-545.161c-416.903,-132.034 -257.676,204.181 -116.628,396.118c74.74,101.705 176.434,147.772 175.318,149.043c-38.697,44.059 -51.9,69.535 -67.04,84.804c-4.558,4.596 -43.027,-13.541 -79.111,-0c-66.594,24.99 41.717,129.274 -29.167,153.132c-128.135,43.129 -105.013,-94.635 -188.109,-108.184c-100.197,-16.338 -94.519,147.324 -211.5,131.434c-103.514,-14.061 4.147,-108.803 -33.333,-131.434c-54.592,-32.963 -136.017,97.045 -223.499,41.666c-67.273,-42.586 99.113,-176.971 149.393,-208.632c193.018,-121.543 243.377,-170.896 -0,-378.84c-119.291,-101.922 -281.727,-150.106 165.553,-368.816Z" style="fill:none;stroke:#fff;stroke-width:12.5px;"/><path d="M3354.01,1405.45c927.3,-386.533 835.218,214.468 -317.826,134.346c-254.217,-17.665 -1191.04,-34.851 -1191.12,-34.601c-13.056,41.277 -34.653,71.222 -33.369,71.979c61.623,36.324 2240.68,64.324 2243.71,-71.979c16.849,-756.7 -736.257,-85.215 -701.4,-99.745Z" style="fill:#dc0408;stroke:#ff7171;stroke-width:12.5px;"/></g><defs><radialGradient id="_Radial1" cx="0" cy="0" r="1" gradientUnits="userSpaceOnUse" gradientTransform="matrix(310.316,0,0,315.265,1420.91,727.304)"><stop offset="0" style="stop-color:#000;stop-opacity:1"/><stop offset="1" style="stop-color:#4d4d4d;stop-opacity:1"/></radialGradient><radialGradient id="_Radial2" cx="0" cy="0" r="1" gradientUnits="userSpaceOnUse" gradientTransform="matrix(-121.911,-2.29282,2.25682,-123.855,2067.63,725.011)"><stop offset="0" style="stop-color:#000;stop-opacity:1"/><stop offset="1" style="stop-color:#4d4d4d;stop-opacity:1"/></radialGradient></defs></svg>